<?xml version="1.0" encoding="iso-8859-1"?>
<!-- Generator: Adobe Illustrator 25.2.1, SVG Export Plug-In . SVG Version: 6.00 Build 0)  -->
<svg version="1.1" id="Layer_1" xmlns="http://www.w3.org/2000/svg" xmlns:xlink="http://www.w3.org/1999/xlink" x="0px" y="0px"
	 viewBox="0 0 1400 500" style="enable-background:new 0 0 1400 500;" xml:space="preserve">
<g>
	<g>
		<g>
			<path style="fill:#FFFFFF;" d="M108.723,112.5h73.28c5.24,0,6.692,1.791,7.968,4.785c0.704,1.655,44.101,105.442,44.101,105.442
				l-105.598-62.723L108.723,112.5z"/>
		</g>
		<g>
			<polygon style="fill:#FFFFFF;" points="130.842,165.593 236.269,227.992 251.301,264.26 187.826,302.013 			"/>
		</g>
		<g>
			<polygon style="fill:#FFFFFF;" points="189.334,305.116 252.788,267.476 262.405,290.725 223.928,388.5 			"/>
		</g>
		<g>
			<path style="fill:#FFFFFF;" d="M447.061,112.5h-73.28c-5.24,0-6.693,1.791-7.968,4.785
				c-0.704,1.655-44.101,105.442-44.101,105.442l105.598-62.723L447.061,112.5z"/>
		</g>
		<g>
			<polygon style="fill:#FFFFFF;" points="424.943,165.593 319.516,227.992 304.484,264.26 367.958,302.013 			"/>
		</g>
		<g>
			<polygon style="fill:#FFFFFF;" points="366.451,305.116 302.997,267.476 293.38,290.725 331.857,388.5 			"/>
		</g>
	</g>
	<g>
		<path style="fill:#FFFFFF;" d="M594.014,223.41h-21.779v59.767h-10.044V223.41h-21.58v-8.85h53.403V223.41z"/>
		<path style="fill:#FFFFFF;" d="M626.683,233.354l-1.094,9.05h-2.985c-3.777,0-9.581,1.858-17.401,5.569v35.204h-9.648v-48.529
			h7.46l0.994,7.358c7.225-5.766,14.02-8.651,20.386-8.651H626.683z"/>
		<path style="fill:#FFFFFF;" d="M637.88,242.703l-0.894-7.061c8.751-1.523,16.607-2.287,23.568-2.287
			c5.898,0,10.243,1.193,13.026,3.58c2.786,2.387,4.178,6.53,4.178,12.431v33.811h-7.56l-1.094-7.657
			c-5.569,5.702-12.032,8.551-19.392,8.551c-4.508,0-8.104-1.194-10.79-3.58c-2.683-2.387-4.028-5.768-4.028-10.143v-5.07
			c0-3.844,1.193-6.829,3.581-8.95c2.387-2.121,5.768-3.182,10.143-3.182h19.492v-3.78c-0.066-2.982-0.762-5.037-2.088-6.167
			c-1.326-1.124-3.846-1.689-7.557-1.689C654.819,241.509,647.957,241.908,637.88,242.703z M644.642,266.57v2.584
			c0,2.387,0.562,4.112,1.689,5.173c1.127,1.061,2.919,1.59,5.372,1.59c5.766,0,11.237-2.252,16.407-6.762v-8.751H650.41
			c-2.124,0.066-3.614,0.613-4.475,1.641C645.071,263.074,644.642,264.579,644.642,266.57z"/>
		<path style="fill:#FFFFFF;" d="M724.764,219.73h-9.847c-2.982,0-5.088,0.565-6.315,1.692c-1.227,1.127-1.838,3.082-1.838,5.865
			v7.36h15.014v7.457h-15.014v41.072h-9.648v-41.072h-8.751v-6.959l8.751-0.498v-8.454c0-4.705,1.127-8.268,3.381-10.69
			c2.254-2.418,5.932-3.629,11.038-3.629c6.231,0,10.905,0.233,14.023,0.695L724.764,219.73z"/>
		<path style="fill:#FFFFFF;" d="M737.353,213.962h4.575c1.855,0,2.786,0.93,2.786,2.786v5.569c0,1.924-0.93,2.883-2.786,2.883
			h-4.575c-1.855,0-2.783-0.958-2.783-2.883v-5.569C734.57,214.892,735.498,213.962,737.353,213.962z M744.415,283.177h-9.548
			v-48.529h9.548V283.177z"/>
		<path style="fill:#FFFFFF;" d="M774.784,259.309h-6.065c0.33,2.852,0.496,5.369,0.496,7.557v16.31h-9.645v-69.611h9.745v30.53
			c0,2.85-0.199,5.602-0.595,8.252h5.965l14.618-17.7h11.138l-14.618,17.601c-0.861,1.193-2.055,2.387-3.578,3.58v0.199
			c1.257,0.994,2.451,2.387,3.578,4.176l16.211,22.973h-11.138L774.784,259.309z"/>
		<path style="fill:#FFFFFF;" d="M821.493,213.566v55.588c-0.066,2.057,0.429,3.598,1.492,4.626c1.058,1.027,2.65,1.541,4.771,1.541
			h4.477l1.094,7.457c-1.924,0.861-5.007,1.293-9.249,1.293c-3.78,0-6.762-1.109-8.95-3.33c-2.188-2.221-3.281-5.354-3.281-9.4
			v-57.776H821.493z"/>
		<path style="fill:#FFFFFF;" d="M872.696,263.585h-21.777c0.463,5.04,1.771,8.421,3.928,10.143
			c2.152,1.725,5.684,2.586,10.591,2.586c4.309,0,9.977-0.399,17.005-1.194l0.894,6.364c-4.375,1.924-10.775,2.885-19.193,2.885
			c-8.487,0-14.503-1.922-18.051-5.768c-3.547-3.844-5.318-10.442-5.318-19.788c0-9.415,1.74-16.011,5.221-19.791
			c3.478-3.78,9.231-5.668,17.253-5.668c7.424,0,12.827,1.36,16.208,4.076c3.381,2.719,5.073,6.798,5.073,12.234
			C884.531,258.946,880.585,263.585,872.696,263.585z M850.82,256.128h19.293c3.182,0,4.771-2.154,4.771-6.463
			c-0.066-2.985-0.91-5.088-2.535-6.315c-1.625-1.227-4.49-1.84-8.602-1.84c-4.771,0-8.089,1.012-9.944,3.034
			C851.947,246.564,850.95,250.426,850.82,256.128z"/>
		<path style="fill:#FFFFFF;" d="M932.393,283.177l-0.795-6.663c-6.233,5.237-12.597,7.856-19.093,7.856
			c-5.967,0-10.294-2.139-12.978-6.415c-2.686-4.276-4.028-10.69-4.028-19.242c0-9.282,1.49-15.827,4.475-19.64
			c2.982-3.813,7.657-5.72,14.02-5.72c6.1,0,11.669,1.459,16.706,4.375c-0.266-2.85-0.396-6.031-0.396-9.545v-14.618h9.645v69.611
			H932.393z M930.306,269.951v-25.856c-6.034-1.592-10.675-2.387-13.923-2.387c-4.112,0-6.962,1.142-8.551,3.43
			c-1.592,2.287-2.387,6.78-2.387,13.476c0,6.696,0.777,11.27,2.336,13.724c1.556,2.453,4.227,3.678,8.007,3.678
			c2.451,0,4.623-0.429,6.512-1.293C924.19,273.864,926.858,272.272,930.306,269.951z"/>
		<path style="fill:#FFFFFF;" d="M976.627,264.083l-13.525-3.381c-4.046-1.061-6.898-2.635-8.554-4.723
			c-1.656-2.091-2.484-5.122-2.484-9.101c0-5.369,1.441-8.983,4.324-10.839c2.885-1.855,7.841-2.75,14.869-2.686
			c7.756,0.133,14.649,0.695,20.683,1.692l-0.795,6.959c-10.143-0.33-16.277-0.496-18.398-0.496c-4.708,0-7.774,0.284-9.198,0.846
			c-1.426,0.562-2.139,2.073-2.139,4.524c0,1.13,0.1,2.039,0.299,2.735c0.199,0.698,0.71,1.278,1.541,1.74
			c0.828,0.465,1.475,0.779,1.94,0.946c0.463,0.166,1.492,0.48,3.082,0.943l13.724,3.381c4.109,1.063,7.026,2.571,8.751,4.526
			c1.725,1.955,2.586,4.989,2.586,9.098c0,5.704-1.577,9.466-4.723,11.288c-3.151,1.822-8.602,2.735-16.359,2.735
			c-6.762,0-13.195-0.465-19.293-1.393l0.695-7.158c3.713,0.332,9.249,0.496,16.607,0.496c5.436,0,9.083-0.381,10.941-1.142
			c1.855-0.762,2.783-2.372,2.783-4.825c0-1.058-0.133-1.937-0.396-2.635c-0.266-0.695-0.831-1.275-1.692-1.74
			c-0.861-0.463-1.541-0.777-2.039-0.943C979.361,264.763,978.283,264.482,976.627,264.083z"/>
		<path style="fill:#FFFFFF;" d="M1051.794,234.647l-17.302,46.142c-0.664,1.592-1.789,2.387-3.381,2.387h-8.651
			c-1.659,0-2.752-0.795-3.281-2.387l-17.304-46.142h10.243l11.337,33.413l2.683,8.354h1.293l2.885-8.354l11.237-33.413H1051.794z"
			/>
		<path style="fill:#FFFFFF;" d="M1090.668,263.585h-21.779c0.465,5.04,1.774,8.421,3.928,10.143
			c2.154,1.725,5.686,2.586,10.593,2.586c4.309,0,9.977-0.399,17.005-1.194l0.895,6.364c-4.375,1.924-10.775,2.885-19.193,2.885
			c-8.487,0-14.503-1.922-18.051-5.768c-3.547-3.844-5.321-10.442-5.321-19.788c0-9.415,1.74-16.011,5.221-19.791
			s9.231-5.668,17.256-5.668c7.424,0,12.827,1.36,16.208,4.076c3.381,2.719,5.073,6.798,5.073,12.234
			C1102.503,258.946,1098.557,263.585,1090.668,263.585z M1068.791,256.128h19.29c3.184,0,4.774-2.154,4.774-6.463
			c-0.066-2.985-0.912-5.088-2.535-6.315c-1.625-1.227-4.493-1.84-8.602-1.84c-4.774,0-8.089,1.012-9.944,3.034
			C1069.916,246.564,1068.922,250.426,1068.791,256.128z"/>
		<path style="fill:#FFFFFF;" d="M1146.021,233.354l-1.094,9.05h-2.985c-3.777,0-9.579,1.858-17.401,5.569v35.204h-9.648v-48.529
			h7.46l0.994,7.358c7.225-5.766,14.023-8.651,20.386-8.651H1146.021z"/>
		<path style="fill:#FFFFFF;" d="M1171.825,259.309h-6.067c0.332,2.852,0.498,5.369,0.498,7.557v16.31h-9.648v-69.611h9.747v30.53
			c0,2.85-0.199,5.602-0.598,8.252h5.968l14.618-17.7h11.138l-14.618,17.601c-0.861,1.193-2.055,2.387-3.581,3.58v0.199
			c1.26,0.994,2.453,2.387,3.581,4.176l16.21,22.973h-11.137L1171.825,259.309z"/>
		<path style="fill:#FFFFFF;" d="M1236.813,263.585h-21.779c0.465,5.04,1.774,8.421,3.928,10.143
			c2.154,1.725,5.686,2.586,10.593,2.586c4.309,0,9.977-0.399,17.005-1.194l0.895,6.364c-4.375,1.924-10.775,2.885-19.193,2.885
			c-8.487,0-14.503-1.922-18.051-5.768c-3.547-3.844-5.321-10.442-5.321-19.788c0-9.415,1.74-16.011,5.221-19.791
			c3.481-3.78,9.231-5.668,17.256-5.668c7.424,0,12.827,1.36,16.208,4.076c3.381,2.719,5.073,6.798,5.073,12.234
			C1248.648,258.946,1244.702,263.585,1236.813,263.585z M1214.937,256.128h19.29c3.184,0,4.774-2.154,4.774-6.463
			c-0.066-2.985-0.912-5.088-2.535-6.315c-1.625-1.227-4.493-1.84-8.602-1.84c-4.774,0-8.089,1.012-9.944,3.034
			C1216.061,246.564,1215.067,250.426,1214.937,256.128z"/>
		<path style="fill:#FFFFFF;" d="M1289.687,275.321l1.094,7.457c-3.051,0.861-6.862,1.293-11.437,1.293
			c-4.112,0-7.245-1.176-9.397-3.529c-2.157-2.354-3.233-5.72-3.233-10.095v-28.342h-8.85v-6.959l8.85-0.399v-14.319h9.548v14.22
			h15.015v7.457h-15.015v27.049c0,2.257,0.478,3.846,1.441,4.774c0.958,0.93,2.602,1.393,4.922,1.393H1289.687z"/>
	</g>
</g>
</svg>
