<?xml version="1.0" encoding="iso-8859-1"?>
<!-- Generator: Adobe Illustrator 25.2.1, SVG Export Plug-In . SVG Version: 6.00 Build 0)  -->
<svg version="1.1" id="Layer_1" xmlns="http://www.w3.org/2000/svg" xmlns:xlink="http://www.w3.org/1999/xlink" x="0px" y="0px"
	 viewBox="0 0 1200 1000" style="enable-background:new 0 0 1200 1000;" xml:space="preserve">
<g>
	<g>
		<g>
			<path style="fill:#FFFFFF;" d="M324.513,150.006H445.02c8.617,0,11.005,2.946,13.103,7.87
				c1.158,2.722,72.522,173.395,72.522,173.395L356.992,228.124L324.513,150.006z"/>
		</g>
		<g>
			<polygon style="fill:#FFFFFF;" points="360.886,237.315 534.258,339.929 558.977,399.571 454.595,461.655 			"/>
		</g>
		<g>
			<polygon style="fill:#FFFFFF;" points="457.074,466.757 561.422,404.86 577.238,443.092 513.963,603.88 			"/>
		</g>
		<g>
			<path style="fill:#FFFFFF;" d="M880.899,150.006H760.392c-8.617,0-11.006,2.946-13.103,7.87
				c-1.158,2.722-72.522,173.395-72.522,173.395L848.42,228.124L880.899,150.006z"/>
		</g>
		<g>
			<polygon style="fill:#FFFFFF;" points="844.526,237.315 671.155,339.929 646.436,399.571 750.817,461.655 			"/>
		</g>
		<g>
			<polygon style="fill:#FFFFFF;" points="748.338,466.757 643.989,404.86 628.175,443.092 691.45,603.88 			"/>
		</g>
	</g>
	<g>
		<path style="fill:#FFFFFF;" d="M266.992,719.044l-29.85,96.864c-0.876,2.732-2.732,4.098-5.56,4.098h-14.34
			c-2.831,0-4.682-1.366-5.56-4.098l-29.85-96.864h15.073l22.825,78.574c0.488,1.853,1.414,5.56,2.78,11.12h3.951
			c0.586-2.828,1.511-6.535,2.78-11.12l22.68-78.574H266.992z"/>
		<path style="fill:#FFFFFF;" d="M278.391,760.453l-1.318-10.389c12.877-2.244,24.437-3.366,34.679-3.366
			c8.679,0,15.075,1.757,19.169,5.27c4.093,3.509,6.144,9.607,6.144,18.29v49.747h-11.12l-1.605-11.267
			c-8.195,8.393-17.708,12.583-28.536,12.583c-6.634,0-11.925-1.753-15.876-5.266c-3.951-3.513-5.926-8.485-5.926-14.924v-7.464
			c0-5.657,1.757-10.044,5.268-13.167c3.511-3.123,8.485-4.682,14.924-4.682h28.683v-5.56c-0.101-4.392-1.126-7.414-3.076-9.074
			c-1.95-1.656-5.657-2.488-11.12-2.488C303.313,758.696,293.219,759.281,278.391,760.453z M295.658,734.409h-4.829
			c-2.44,0-3.658-1.32-3.658-3.951v-7.901c0-2.635,1.219-3.951,3.658-3.951h4.829c2.534,0,3.803,1.315,3.803,3.951v7.901
			C299.462,733.089,298.192,734.409,295.658,734.409z M288.341,795.571v3.803c0,3.513,0.828,6.048,2.488,7.607
			c1.656,1.563,4.291,2.341,7.901,2.341c8.485,0,16.531-3.312,24.147-9.948v-12.877h-26.048c-3.125,0.101-5.319,0.904-6.586,2.417
			C288.974,790.427,288.341,792.642,288.341,795.571z M321.557,734.409h-4.682c-2.538,0-3.808-1.32-3.808-3.951v-7.901
			c0-2.635,1.269-3.951,3.808-3.951h4.682c2.631,0,3.951,1.315,3.951,3.951v7.901C325.508,733.089,324.188,734.409,321.557,734.409z
			"/>
		<path style="fill:#FFFFFF;" d="M422.456,748.602l-27.654,74.77c-6.636,17.559-17.559,26.431-32.777,26.628l-1.463-9.364
			c5.56-1.66,9.948-3.951,13.167-6.876c3.219-2.929,5.804-6.636,7.758-11.12l1.021-2.635h-2.925c-2.732,0-4.392-1.219-4.976-3.656
			l-25.313-67.747h15.218l17.706,51.941c1.168,3.026,1.996,5.955,2.488,8.779h2.047c0.975-2.631,1.95-5.56,2.925-8.779
			l17.559-51.941H422.456z"/>
		<path style="fill:#FFFFFF;" d="M451.501,717.581v81.793c-0.097,3.026,0.635,5.291,2.194,6.804c1.559,1.513,3.9,2.269,7.027,2.269
			h6.581l1.61,10.973c-2.828,1.265-7.363,1.9-13.608,1.9c-5.56,0-9.948-1.631-13.167-4.9c-3.219-3.266-4.829-7.876-4.829-13.827
			v-85.012H451.501z"/>
		<path style="fill:#FFFFFF;" d="M484.681,760.453l-1.315-10.389c12.877-2.244,24.434-3.366,34.681-3.366
			c8.679,0,15.071,1.757,19.164,5.27c4.098,3.509,6.148,9.607,6.148,18.29v49.747h-11.12l-1.61-11.267
			c-8.195,8.393-17.706,12.583-28.532,12.583c-6.636,0-11.927-1.753-15.878-5.266c-3.951-3.513-5.926-8.485-5.926-14.924v-7.464
			c0-5.657,1.757-10.044,5.266-13.167c3.513-3.123,8.489-4.682,14.928-4.682h28.679v-5.56c-0.101-4.392-1.126-7.414-3.076-9.074
			c-1.95-1.656-5.657-2.488-11.12-2.488C509.607,758.696,499.508,759.281,484.681,760.453z M501.95,734.409h-4.829
			c-2.442,0-3.661-1.32-3.661-3.951v-7.901c0-2.635,1.219-3.951,3.661-3.951h4.829c2.534,0,3.803,1.315,3.803,3.951v7.901
			C505.753,733.089,504.484,734.409,501.95,734.409z M494.633,795.571v3.803c0,3.513,0.828,6.048,2.488,7.607
			c1.656,1.563,4.291,2.341,7.901,2.341c8.485,0,16.533-3.312,24.145-9.948v-12.877h-26.048c-3.123,0.101-5.316,0.904-6.581,2.417
			C495.267,790.427,494.633,792.642,494.633,795.571z M527.847,734.409h-4.682c-2.538,0-3.803-1.32-3.803-3.951v-7.901
			c0-2.635,1.265-3.951,3.803-3.951h4.682c2.635,0,3.951,1.315,3.951,3.951v7.901C531.797,733.089,530.482,734.409,527.847,734.409z
			"/>
		<path style="fill:#FFFFFF;" d="M628.972,748.602l-25.46,67.89c-0.979,2.341-2.635,3.513-4.976,3.513h-12.73
			c-2.438,0-4.047-1.173-4.829-3.513l-25.46-67.89h15.071l16.681,49.163l3.951,12.293h1.904l4.241-12.293l16.538-49.163H628.972z"/>
		<path style="fill:#FFFFFF;" d="M647.54,718.166h6.729c2.732,0,4.098,1.366,4.098,4.098v8.195c0,2.828-1.366,4.241-4.098,4.241
			h-6.729c-2.732,0-4.098-1.412-4.098-4.241v-8.195C643.442,719.531,644.808,718.166,647.54,718.166z M657.929,820.005h-14.05
			v-71.404h14.05V820.005z"/>
		<path style="fill:#FFFFFF;" d="M725.105,746.698l-1.61,13.314h-4.392c-5.56,0-14.096,2.736-25.607,8.195v51.798h-14.193v-71.404
			h10.973l1.467,10.826c10.629-8.485,20.631-12.73,29.995-12.73H725.105z"/>
		<path style="fill:#FFFFFF;" d="M740.625,760.453l-1.315-10.389c12.877-2.244,24.435-3.366,34.681-3.366
			c8.679,0,15.071,1.757,19.164,5.27c4.098,3.509,6.149,9.607,6.149,18.29v49.747h-11.12l-1.61-11.267
			c-8.195,8.393-17.706,12.583-28.532,12.583c-6.636,0-11.927-1.753-15.878-5.266c-3.951-3.513-5.926-8.485-5.926-14.924v-7.464
			c0-5.657,1.757-10.044,5.266-13.167c3.513-3.123,8.489-4.682,14.928-4.682h28.679v-5.56c-0.101-4.392-1.126-7.414-3.076-9.074
			c-1.95-1.656-5.657-2.488-11.12-2.488C765.551,758.696,755.452,759.281,740.625,760.453z M750.577,795.571v3.803
			c0,3.513,0.828,6.048,2.488,7.607c1.656,1.563,4.291,2.341,7.901,2.341c8.485,0,16.533-3.312,24.145-9.948v-12.877h-26.048
			c-3.123,0.101-5.316,0.904-6.581,2.417C751.212,790.427,750.577,792.642,750.577,795.571z"/>
		<path style="fill:#FFFFFF;" d="M852.123,791.91l-19.9-4.972c-5.951-1.559-10.149-3.879-12.583-6.951
			c-2.442-3.072-3.661-7.535-3.661-13.39c0-7.901,2.122-13.217,6.367-15.949c4.241-2.728,11.532-4.047,21.875-3.951
			c11.41,0.198,21.556,1.025,30.432,2.488l-1.168,10.242c-14.924-0.487-23.951-0.731-27.07-0.731c-6.926,0-11.44,0.416-13.537,1.244
			c-2.097,0.832-3.144,3.051-3.144,6.657c0,1.66,0.147,3.001,0.437,4.026c0.294,1.021,1.047,1.879,2.269,2.559
			c1.219,0.685,2.169,1.147,2.854,1.391c0.681,0.244,2.194,0.706,4.535,1.387l20.194,4.976c6.048,1.563,10.339,3.782,12.877,6.657
			c2.534,2.879,3.803,7.342,3.803,13.39c0,8.389-2.32,13.924-6.951,16.609c-4.636,2.681-12.659,4.022-24.069,4.022
			c-9.952,0-19.412-0.685-28.385-2.047l1.021-10.536c5.464,0.487,13.608,0.731,24.435,0.731c7.998,0,13.365-0.559,16.096-1.685
			c2.732-1.118,4.098-3.484,4.098-7.094c0-1.559-0.198-2.854-0.584-3.879c-0.391-1.021-1.223-1.874-2.488-2.559
			c-1.269-0.681-2.269-1.147-3.001-1.391C856.145,792.915,854.56,792.499,852.123,791.91z"/>
		<path style="fill:#FFFFFF;" d="M935.761,808.448l1.605,10.973c-4.484,1.265-10.095,1.9-16.823,1.9
			c-6.052,0-10.658-1.727-13.827-5.195c-3.173-3.459-4.757-8.414-4.757-14.848v-41.703h-13.024v-10.242l13.024-0.584v-21.072h14.045
			v20.925h22.098v10.973h-22.098v39.8c0,3.316,0.706,5.657,2.122,7.023c1.412,1.366,3.829,2.051,7.245,2.051H935.761z"/>
		<path style="fill:#FFFFFF;" d="M957.737,755.33c5.169-5.754,13.949-8.632,26.338-8.632c12.385,0,21.165,2.879,26.334,8.632
			c5.169,5.758,7.758,15.462,7.758,29.12s-2.589,23.312-7.758,28.969c-5.169,5.661-13.949,8.49-26.334,8.49
			c-12.39,0-21.169-2.828-26.338-8.49c-5.174-5.657-7.758-15.31-7.758-28.969S952.563,761.088,957.737,755.33z M999.289,764.109
			c-2.732-3.606-7.804-5.413-15.214-5.413c-7.418,0-12.49,1.807-15.218,5.413c-2.732,3.61-4.098,10.389-4.098,20.341
			c0,9.851,1.366,16.584,4.098,20.19c2.728,3.61,7.8,5.417,15.218,5.417c7.409,0,12.482-1.807,15.214-5.417
			c2.732-3.606,4.098-10.339,4.098-20.19C1003.386,774.499,1002.021,767.72,999.289,764.109z"/>
	</g>
</g>
</svg>
