<?xml version="1.0" encoding="iso-8859-1"?>
<!-- Generator: Adobe Illustrator 25.2.1, SVG Export Plug-In . SVG Version: 6.00 Build 0)  -->
<svg version="1.1" id="Layer_1" xmlns="http://www.w3.org/2000/svg" xmlns:xlink="http://www.w3.org/1999/xlink" x="0px" y="0px"
	 viewBox="0 0 1200 1000" style="enable-background:new 0 0 1200 1000;" xml:space="preserve">
<g>
	<g>
		<path style="fill:#FFFFFF;" d="M373.381,150h98.71c7.059,0,9.015,2.413,10.733,6.446c0.948,2.229,59.404,142.032,59.404,142.032
			l-142.243-84.49L373.381,150z"/>
	</g>
	<g>
		<polygon style="fill:#FFFFFF;" points="403.176,221.517 545.188,305.57 565.436,354.425 479.935,405.279 		"/>
	</g>
	<g>
		<polygon style="fill:#FFFFFF;" points="481.966,409.459 567.44,358.757 580.394,390.074 528.564,521.779 		"/>
	</g>
	<g>
		<path style="fill:#FFFFFF;" d="M829.13,150h-98.71c-7.059,0-9.015,2.413-10.733,6.446c-0.949,2.229-59.404,142.032-59.404,142.032
			l142.243-84.49L829.13,150z"/>
	</g>
	<g>
		<polygon style="fill:#FFFFFF;" points="799.337,221.517 657.324,305.57 637.076,354.425 722.577,405.279 		"/>
	</g>
	<g>
		<polygon style="fill:#FFFFFF;" points="720.547,409.459 635.072,358.757 622.118,390.074 673.948,521.779 		"/>
	</g>
</g>
<g>
	<path style="fill:#FFFFFF;" d="M325.667,616.116l-24.451,79.344c-0.718,2.238-2.238,3.357-4.554,3.357h-11.746
		c-2.319,0-3.835-1.119-4.554-3.357l-24.451-79.344h12.347l18.696,64.362c0.399,1.518,1.158,4.554,2.277,9.109h3.236
		c0.48-2.317,1.238-5.353,2.277-9.109l18.578-64.362H325.667z"/>
	<path style="fill:#FFFFFF;" d="M335.005,650.035l-1.079-8.51c10.548-1.838,20.017-2.758,28.406-2.758
		c7.109,0,12.348,1.439,15.701,4.317c3.353,2.875,5.033,7.87,5.033,14.982v40.749h-9.109l-1.315-9.229
		c-6.713,6.875-14.505,10.307-23.375,10.307c-5.434,0-9.768-1.436-13.004-4.314c-3.236-2.878-4.854-6.95-4.854-12.224v-6.114
		c0-4.634,1.439-8.228,4.315-10.785c2.876-2.558,6.95-3.835,12.224-3.835h23.495v-4.554c-0.083-3.597-0.923-6.073-2.52-7.432
		c-1.597-1.356-4.634-2.038-9.109-2.038C355.419,648.596,347.15,649.075,335.005,650.035z M349.149,628.702h-3.955
		c-1.998,0-2.997-1.081-2.997-3.236v-6.472c0-2.159,0.998-3.236,2.997-3.236h3.955c2.076,0,3.115,1.078,3.115,3.236v6.472
		C352.264,627.621,351.224,628.702,349.149,628.702z M343.155,678.801v3.115c0,2.878,0.678,4.954,2.038,6.231
		c1.356,1.281,3.515,1.917,6.472,1.917c6.95,0,13.541-2.713,19.779-8.148v-10.548h-21.337c-2.56,0.083-4.357,0.74-5.394,1.979
		C343.673,674.587,343.155,676.402,343.155,678.801z M370.363,628.702h-3.835c-2.079,0-3.119-1.081-3.119-3.236v-6.472
		c0-2.159,1.04-3.236,3.119-3.236h3.835c2.155,0,3.236,1.078,3.236,3.236v6.472C373.599,627.621,372.518,628.702,370.363,628.702z"
		/>
	<path style="fill:#FFFFFF;" d="M453.012,640.327l-22.652,61.246c-5.436,14.383-14.383,21.65-26.848,21.812l-1.198-7.67
		c4.554-1.36,8.148-3.236,10.785-5.632c2.637-2.399,4.754-5.436,6.355-9.109l0.837-2.158h-2.396c-2.238,0-3.597-0.998-4.076-2.995
		l-20.734-55.494h12.465l14.503,42.546c0.957,2.479,1.635,4.878,2.038,7.191h1.677c0.799-2.155,1.597-4.555,2.396-7.191
		l14.383-42.546H453.012z"/>
	<path style="fill:#FFFFFF;" d="M476.803,614.918v66.999c-0.079,2.479,0.52,4.334,1.797,5.573c1.277,1.239,3.195,1.859,5.756,1.859
		h5.391l1.318,8.988c-2.317,1.036-6.031,1.556-11.147,1.556c-4.554,0-8.148-1.336-10.785-4.014
		c-2.637-2.675-3.955-6.451-3.955-11.326v-69.636H476.803z"/>
	<path style="fill:#FFFFFF;" d="M503.982,650.035l-1.078-8.51c10.548-1.838,20.015-2.758,28.408-2.758
		c7.109,0,12.345,1.439,15.698,4.317c3.356,2.875,5.036,7.87,5.036,14.982v40.749h-9.109l-1.318-9.229
		c-6.713,6.875-14.503,10.307-23.371,10.307c-5.436,0-9.77-1.436-13.006-4.314c-3.236-2.878-4.854-6.95-4.854-12.224v-6.114
		c0-4.634,1.439-8.228,4.314-10.785c2.878-2.558,6.954-3.835,12.228-3.835h23.492v-4.554c-0.083-3.597-0.923-6.073-2.52-7.432
		c-1.597-1.356-4.634-2.038-9.109-2.038C524.399,648.596,516.127,649.075,503.982,650.035z M518.127,628.702h-3.955
		c-2,0-2.998-1.081-2.998-3.236v-6.472c0-2.159,0.998-3.236,2.998-3.236h3.955c2.076,0,3.115,1.078,3.115,3.236v6.472
		C521.243,627.621,520.203,628.702,518.127,628.702z M512.134,678.801v3.115c0,2.878,0.678,4.954,2.038,6.231
		c1.356,1.281,3.515,1.917,6.472,1.917c6.951,0,13.543-2.713,19.777-8.148v-10.548h-21.337c-2.558,0.083-4.355,0.74-5.391,1.979
		C512.653,674.587,512.134,676.402,512.134,678.801z M539.34,628.702h-3.835c-2.079,0-3.116-1.081-3.116-3.236v-6.472
		c0-2.159,1.036-3.236,3.116-3.236h3.835c2.158,0,3.236,1.078,3.236,3.236v6.472C542.576,627.621,541.498,628.702,539.34,628.702z"
		/>
	<path style="fill:#FFFFFF;" d="M622.174,640.327l-20.855,55.611c-0.802,1.918-2.158,2.878-4.076,2.878h-10.427
		c-1.997,0-3.315-0.96-3.956-2.878l-20.855-55.611h12.345l13.663,40.271l3.236,10.069h1.559l3.474-10.069l13.546-40.271H622.174z"/>
	<path style="fill:#FFFFFF;" d="M637.383,615.396h5.511c2.238,0,3.356,1.119,3.356,3.356v6.713c0,2.317-1.119,3.474-3.356,3.474
		h-5.511c-2.238,0-3.357-1.157-3.357-3.474v-6.713C634.027,616.515,635.146,615.396,637.383,615.396z M645.893,698.816h-11.508
		v-58.489h11.508V698.816z"/>
	<path style="fill:#FFFFFF;" d="M700.919,638.768l-1.319,10.906h-3.597c-4.555,0-11.546,2.241-20.975,6.713v42.429h-11.625v-58.489
		h8.988l1.201,8.868c8.706-6.951,16.899-10.427,24.569-10.427H700.919z"/>
	<path style="fill:#FFFFFF;" d="M713.632,650.035l-1.078-8.51c10.548-1.838,20.015-2.758,28.408-2.758
		c7.109,0,12.345,1.439,15.698,4.317c3.356,2.875,5.036,7.87,5.036,14.982v40.749h-9.109l-1.318-9.229
		c-6.713,6.875-14.503,10.307-23.371,10.307c-5.436,0-9.77-1.436-13.006-4.314c-3.236-2.878-4.854-6.95-4.854-12.224v-6.114
		c0-4.634,1.439-8.228,4.313-10.785c2.878-2.558,6.954-3.835,12.228-3.835h23.492v-4.554c-0.083-3.597-0.923-6.073-2.52-7.432
		c-1.597-1.356-4.634-2.038-9.109-2.038C734.05,648.596,725.777,649.075,713.632,650.035z M721.784,678.801v3.115
		c0,2.878,0.678,4.954,2.038,6.231c1.356,1.281,3.515,1.917,6.472,1.917c6.951,0,13.543-2.713,19.777-8.148v-10.548h-21.337
		c-2.558,0.083-4.355,0.74-5.391,1.979C722.304,674.587,721.784,676.402,721.784,678.801z"/>
	<path style="fill:#FFFFFF;" d="M804.962,675.803l-16.3-4.073c-4.875-1.277-8.314-3.177-10.307-5.694
		c-2-2.516-2.998-6.172-2.998-10.968c0-6.472,1.739-10.827,5.215-13.064c3.474-2.234,9.446-3.315,17.918-3.236
		c9.346,0.162,17.657,0.84,24.927,2.038l-0.957,8.389c-12.224-0.399-19.619-0.599-22.173-0.599c-5.673,0-9.371,0.341-11.088,1.019
		c-1.718,0.682-2.575,2.499-2.575,5.453c0,1.36,0.12,2.458,0.358,3.298c0.241,0.837,0.857,1.539,1.859,2.096
		c0.998,0.561,1.776,0.94,2.337,1.139c0.558,0.2,1.797,0.578,3.714,1.136l16.541,4.076c4.954,1.281,8.469,3.098,10.548,5.453
		c2.076,2.358,3.116,6.014,3.116,10.968c0,6.871-1.9,11.405-5.694,13.605c-3.797,2.196-10.369,3.294-19.715,3.294
		c-8.152,0-15.901-0.561-23.251-1.677l0.837-8.63c4.475,0.399,11.147,0.599,20.015,0.599c6.551,0,10.947-0.458,13.185-1.38
		c2.238-0.916,3.356-2.854,3.356-5.811c0-1.277-0.162-2.337-0.479-3.177c-0.32-0.837-1.002-1.535-2.038-2.096
		c-1.04-0.558-1.859-0.94-2.458-1.14C808.257,676.625,806.959,676.285,804.962,675.803z"/>
	<path style="fill:#FFFFFF;" d="M873.472,689.349l1.315,8.988c-3.673,1.036-8.269,1.556-13.78,1.556
		c-4.957,0-8.73-1.415-11.326-4.255c-2.599-2.833-3.897-6.892-3.897-12.162v-34.16h-10.668v-8.389l10.668-0.479v-17.261h11.505
		v17.14h18.101v8.988h-18.101v32.601c0,2.716,0.578,4.634,1.739,5.753c1.157,1.119,3.136,1.68,5.935,1.68H873.472z"/>
	<path style="fill:#FFFFFF;" d="M891.473,645.839c4.234-4.713,11.426-7.071,21.574-7.071c10.145,0,17.337,2.358,21.571,7.071
		c4.234,4.716,6.355,12.665,6.355,23.853s-2.121,19.096-6.355,23.729c-4.234,4.637-11.426,6.954-21.571,6.954
		c-10.149,0-17.34-2.317-21.574-6.954c-4.238-4.634-6.355-12.541-6.355-23.729S887.236,650.555,891.473,645.839z M925.51,653.03
		c-2.238-2.954-6.393-4.434-12.462-4.434c-6.076,0-10.231,1.48-12.465,4.434c-2.238,2.957-3.357,8.51-3.357,16.662
		c0,8.069,1.119,13.584,3.357,16.538c2.234,2.957,6.389,4.437,12.465,4.437c6.069,0,10.224-1.48,12.462-4.437
		c2.238-2.954,3.357-8.469,3.357-16.538C928.866,661.54,927.747,655.987,925.51,653.03z"/>
</g>
<g>
	<path style="fill:#FFFFFF;" d="M210.573,777.529h-26.249v72.032h-12.106v-72.032h-26.008v-10.668h64.363V777.529z"/>
	<path style="fill:#FFFFFF;" d="M250.196,789.513l-1.318,10.906h-3.596c-4.554,0-11.546,2.241-20.974,6.713v42.429h-11.627v-58.489
		h8.99l1.198,8.868c8.708-6.95,16.899-10.427,24.571-10.427H250.196z"/>
	<path style="fill:#FFFFFF;" d="M263.87,800.78l-1.079-8.51c10.548-1.838,20.017-2.758,28.406-2.758
		c7.111,0,12.345,1.439,15.701,4.317c3.356,2.875,5.033,7.87,5.033,14.982v40.749h-9.109l-1.319-9.229
		c-6.711,6.875-14.502,10.307-23.371,10.307c-5.434,0-9.768-1.436-13.004-4.314c-3.236-2.878-4.854-6.95-4.854-12.224v-6.114
		c0-4.634,1.439-8.228,4.315-10.785c2.876-2.558,6.95-3.835,12.224-3.835h23.492v-4.554c-0.081-3.597-0.919-6.073-2.516-7.432
		c-1.599-1.356-4.635-2.038-9.109-2.038C284.284,799.341,276.015,799.82,263.87,800.78z M272.02,829.546v3.115
		c0,2.878,0.678,4.954,2.038,6.231c1.356,1.281,3.515,1.918,6.472,1.918c6.95,0,13.543-2.713,19.776-8.148v-10.548h-21.333
		c-2.56,0.083-4.357,0.74-5.394,1.979C272.538,825.332,272.02,827.147,272.02,829.546z"/>
	<path style="fill:#FFFFFF;" d="M368.778,773.092h-11.865c-3.596,0-6.133,0.682-7.611,2.038c-1.479,1.36-2.217,3.718-2.217,7.071
		v8.871h18.099v8.988h-18.099v49.5h-11.625v-49.5h-10.548v-8.389l10.548-0.599v-10.19c0-5.67,1.356-9.966,4.074-12.882
		c2.716-2.916,7.15-4.375,13.304-4.375c7.51,0,13.145,0.282,16.898,0.84L368.778,773.092z"/>
	<path style="fill:#FFFFFF;" d="M384.121,766.142h5.512c2.238,0,3.356,1.119,3.356,3.356v6.713c0,2.317-1.119,3.474-3.356,3.474
		h-5.512c-2.238,0-3.356-1.157-3.356-3.474v-6.713C380.765,767.26,381.884,766.142,384.121,766.142z M392.631,849.561h-11.508
		v-58.489h11.508V849.561z"/>
	<path style="fill:#FFFFFF;" d="M429.435,820.795h-7.312c0.399,3.436,0.599,6.472,0.599,9.109v19.657h-11.625v-83.898h11.746v36.794
		c0,3.439-0.238,6.754-0.719,9.949h7.191l17.619-21.333h13.426l-17.619,21.213c-1.04,1.439-2.479,2.878-4.317,4.317v0.238
		c1.518,1.198,2.957,2.878,4.317,5.036l19.536,27.685h-13.426L429.435,820.795z"/>
	<path style="fill:#FFFFFF;" d="M485.914,765.663v66.999c-0.079,2.479,0.52,4.334,1.797,5.573s3.195,1.859,5.756,1.859h5.391
		l1.319,8.988c-2.317,1.036-6.031,1.556-11.147,1.556c-4.554,0-8.148-1.336-10.785-4.014c-2.637-2.675-3.955-6.451-3.955-11.326
		v-69.636H485.914z"/>
	<path style="fill:#FFFFFF;" d="M547.814,825.949h-26.246c0.558,6.073,2.134,10.149,4.734,12.224
		c2.596,2.079,6.851,3.119,12.765,3.119c5.191,0,12.025-0.482,20.493-1.439l1.081,7.67c-5.274,2.317-12.985,3.477-23.134,3.477
		c-10.228,0-17.481-2.317-21.753-6.954c-4.276-4.63-6.413-12.582-6.413-23.85c0-11.343,2.1-19.295,6.293-23.85
		c4.196-4.554,11.126-6.833,20.796-6.833c8.947,0,15.46,1.639,19.536,4.916c4.076,3.277,6.11,8.19,6.11,14.741
		C562.076,820.358,557.322,825.949,547.814,825.949z M521.447,816.96h23.251c3.835,0,5.752-2.596,5.752-7.79
		c-0.079-3.594-1.098-6.131-3.054-7.611c-1.962-1.477-5.415-2.217-10.369-2.217c-5.753,0-9.749,1.219-11.987,3.656
		C522.804,805.435,521.606,810.089,521.447,816.96z"/>
	<path style="fill:#FFFFFF;" d="M619.945,849.561l-0.96-8.031c-7.512,6.314-15.182,9.47-23.01,9.47
		c-7.191,0-12.407-2.578-15.643-7.732c-3.236-5.153-4.854-12.885-4.854-23.192c0-11.185,1.797-19.075,5.394-23.671
		c3.594-4.592,9.229-6.892,16.899-6.892c7.35,0,14.063,1.759,20.135,5.274c-0.32-3.436-0.479-7.271-0.479-11.505v-17.619h11.625
		v83.898H619.945z M617.429,833.619v-31.162c-7.274-1.917-12.865-2.875-16.779-2.875c-4.957,0-8.393,1.377-10.31,4.134
		c-1.918,2.757-2.875,8.169-2.875,16.238c0,8.073,0.936,13.588,2.816,16.541c1.876,2.957,5.095,4.434,9.649,4.434
		c2.954,0,5.573-0.516,7.849-1.556C610.058,838.335,613.274,836.417,617.429,833.619z"/>
	<path style="fill:#FFFFFF;" d="M673.449,826.548l-16.3-4.073c-4.875-1.277-8.314-3.177-10.307-5.694
		c-2-2.516-2.998-6.172-2.998-10.968c0-6.472,1.738-10.827,5.215-13.064c3.474-2.234,9.446-3.315,17.918-3.236
		c9.346,0.162,17.657,0.84,24.927,2.038l-0.957,8.389c-12.224-0.399-19.619-0.599-22.173-0.599c-5.673,0-9.371,0.341-11.088,1.019
		c-1.718,0.682-2.575,2.499-2.575,5.453c0,1.36,0.12,2.458,0.358,3.298c0.241,0.836,0.857,1.539,1.859,2.096
		c0.998,0.561,1.776,0.94,2.338,1.139c0.558,0.2,1.797,0.578,3.714,1.136l16.541,4.076c4.954,1.281,8.469,3.098,10.548,5.453
		c2.076,2.358,3.115,6.014,3.115,10.968c0,6.871-1.9,11.405-5.694,13.605c-3.797,2.196-10.369,3.294-19.715,3.294
		c-8.152,0-15.901-0.561-23.251-1.677l0.837-8.63c4.475,0.399,11.147,0.599,20.015,0.599c6.551,0,10.947-0.458,13.185-1.38
		c2.238-0.916,3.357-2.854,3.357-5.811c0-1.277-0.162-2.337-0.479-3.177c-0.32-0.837-1.002-1.535-2.038-2.096
		c-1.04-0.558-1.859-0.94-2.458-1.14C676.744,827.37,675.446,827.03,673.449,826.548z"/>
	<path style="fill:#FFFFFF;" d="M764.211,791.072l-20.855,55.611c-0.802,1.917-2.158,2.878-4.076,2.878h-10.427
		c-1.997,0-3.315-0.961-3.956-2.878l-20.855-55.611h12.345l13.663,40.271l3.236,10.069h1.559l3.474-10.069l13.546-40.271H764.211z"
		/>
	<path style="fill:#FFFFFF;" d="M811.254,825.949h-26.246c0.558,6.073,2.134,10.149,4.733,12.224
		c2.596,2.079,6.851,3.119,12.765,3.119c5.191,0,12.025-0.482,20.493-1.439l1.081,7.67c-5.274,2.317-12.985,3.477-23.134,3.477
		c-10.228,0-17.481-2.317-21.753-6.954c-4.276-4.63-6.413-12.582-6.413-23.85c0-11.343,2.1-19.295,6.293-23.85
		c4.196-4.554,11.126-6.833,20.796-6.833c8.947,0,15.46,1.639,19.536,4.916c4.076,3.277,6.111,8.19,6.111,14.741
		C825.516,820.358,820.762,825.949,811.254,825.949z M784.887,816.96h23.251c3.835,0,5.752-2.596,5.752-7.79
		c-0.079-3.594-1.098-6.131-3.054-7.611c-1.962-1.477-5.415-2.217-10.369-2.217c-5.752,0-9.749,1.219-11.987,3.656
		C786.244,805.435,785.046,810.089,784.887,816.96z"/>
	<path style="fill:#FFFFFF;" d="M878.156,789.513l-1.318,10.906h-3.597c-4.554,0-11.546,2.241-20.975,6.713v42.429h-11.625v-58.489
		h8.988l1.201,8.868c8.706-6.95,16.899-10.427,24.569-10.427H878.156z"/>
	<path style="fill:#FFFFFF;" d="M909.438,820.795h-7.312c0.399,3.436,0.599,6.472,0.599,9.109v19.657H891.1v-83.898h11.746v36.794
		c0,3.439-0.237,6.754-0.719,9.949h7.191l17.619-21.333h13.426l-17.619,21.213c-1.04,1.439-2.479,2.878-4.317,4.317v0.238
		c1.518,1.198,2.957,2.878,4.317,5.036l19.536,27.685h-13.426L909.438,820.795z"/>
	<path style="fill:#FFFFFF;" d="M987.966,825.949H961.72c0.558,6.073,2.134,10.149,4.733,12.224
		c2.596,2.079,6.851,3.119,12.765,3.119c5.191,0,12.025-0.482,20.493-1.439l1.081,7.67c-5.274,2.317-12.985,3.477-23.134,3.477
		c-10.228,0-17.481-2.317-21.753-6.954c-4.276-4.63-6.413-12.582-6.413-23.85c0-11.343,2.1-19.295,6.293-23.85
		c4.196-4.554,11.126-6.833,20.796-6.833c8.947,0,15.46,1.639,19.536,4.916c4.076,3.277,6.11,8.19,6.11,14.741
		C1002.228,820.358,997.474,825.949,987.966,825.949z M961.599,816.96h23.251c3.835,0,5.752-2.596,5.752-7.79
		c-0.079-3.594-1.098-6.131-3.054-7.611c-1.962-1.477-5.415-2.217-10.369-2.217c-5.752,0-9.749,1.219-11.987,3.656
		C962.956,805.435,961.758,810.089,961.599,816.96z"/>
	<path style="fill:#FFFFFF;" d="M1051.873,840.094l1.315,8.988c-3.673,1.036-8.269,1.556-13.781,1.556
		c-4.957,0-8.73-1.415-11.326-4.255c-2.599-2.833-3.897-6.892-3.897-12.162v-34.16h-10.668v-8.389l10.668-0.479v-17.261h11.505
		v17.14h18.101v8.988h-18.101v32.601c0,2.716,0.578,4.634,1.738,5.753c1.157,1.119,3.136,1.68,5.935,1.68H1051.873z"/>
</g>
</svg>
