<?xml version="1.0" encoding="iso-8859-1"?>
<!-- Generator: Adobe Illustrator 25.2.1, SVG Export Plug-In . SVG Version: 6.00 Build 0)  -->
<svg version="1.1" id="Layer_1" xmlns="http://www.w3.org/2000/svg" xmlns:xlink="http://www.w3.org/1999/xlink" x="0px" y="0px"
	 viewBox="0 0 1200 1200" style="enable-background:new 0 0 1200 1200;" xml:space="preserve">
<g>
	<g>
		<g>
			<path style="fill:#FFFFFF;" d="M374.996,186h96.159c6.876,0,8.782,2.351,10.456,6.28c0.924,2.172,57.869,138.361,57.869,138.361
				l-138.567-82.306L374.996,186z"/>
		</g>
		<g>
			<polygon style="fill:#FFFFFF;" points="404.02,255.669 542.362,337.549 562.087,385.141 478.796,434.681 			"/>
		</g>
		<g>
			<polygon style="fill:#FFFFFF;" points="480.774,438.753 564.039,389.361 576.659,419.868 526.168,548.17 			"/>
		</g>
		<g>
			<path style="fill:#FFFFFF;" d="M818.966,186h-96.159c-6.876,0-8.782,2.351-10.456,6.28
				c-0.924,2.172-57.869,138.361-57.869,138.361l138.567-82.306L818.966,186z"/>
		</g>
		<g>
			<polygon style="fill:#FFFFFF;" points="789.942,255.669 651.6,337.549 631.875,385.141 715.166,434.681 			"/>
		</g>
		<g>
			<polygon style="fill:#FFFFFF;" points="713.188,438.753 629.923,389.361 617.304,419.868 667.794,548.17 			"/>
		</g>
	</g>
	<g>
		<path style="fill:#FFFFFF;" d="M405.902,636.292l-16.815,54.559c-0.496,1.539-1.543,2.307-3.132,2.307h-8.075
			c-1.596,0-2.636-0.768-3.132-2.307l-16.815-54.559h8.491l12.858,44.257c0.275,1.043,0.791,3.132,1.563,6.264h2.227
			c0.329-1.593,0.852-3.682,1.563-6.264l12.777-44.257H405.902z"/>
		<path style="fill:#FFFFFF;" d="M412.636,659.616l-0.745-5.852c7.254-1.264,13.766-1.898,19.534-1.898
			c4.889,0,8.488,0.989,10.795,2.968c2.307,1.979,3.461,5.413,3.461,10.302v28.022h-6.261l-0.909-6.345
			c-4.615,4.725-9.97,7.086-16.07,7.086c-3.736,0-6.717-0.989-8.941-2.968c-2.227-1.975-3.34-4.779-3.34-8.404v-4.205
			c0-3.186,0.989-5.657,2.968-7.418c1.979-1.757,4.779-2.636,8.407-2.636h16.154v-3.132c-0.057-2.472-0.634-4.175-1.73-5.111
			c-1.1-0.932-3.189-1.398-6.264-1.398C426.671,658.627,420.987,658.956,412.636,659.616z M422.358,644.945h-2.72
			c-1.372,0-2.059-0.741-2.059-2.227v-4.45c0-1.482,0.688-2.223,2.059-2.223h2.72c1.429,0,2.143,0.741,2.143,2.223v4.45
			C424.501,644.203,423.787,644.945,422.358,644.945z M418.24,679.396v2.143c0,1.979,0.466,3.407,1.398,4.286
			c0.936,0.879,2.418,1.318,4.454,1.318c4.779,0,9.313-1.868,13.599-5.604v-7.254h-14.672c-1.757,0.057-2.995,0.51-3.709,1.362
			C418.595,676.498,418.24,677.746,418.24,679.396z M436.946,644.945h-2.636c-1.429,0-2.143-0.741-2.143-2.227v-4.45
			c0-1.482,0.714-2.223,2.143-2.223h2.636c1.486,0,2.227,0.741,2.227,2.223v4.45C439.173,644.203,438.432,644.945,436.946,644.945z"
			/>
		<path style="fill:#FFFFFF;" d="M494.061,652.939l-15.577,42.114c-3.736,9.89-9.89,14.89-18.461,15l-0.822-5.275
			c3.129-0.936,5.604-2.223,7.415-3.873c1.814-1.647,3.27-3.736,4.37-6.264l0.577-1.482h-1.65c-1.536,0-2.472-0.687-2.8-2.059
			l-14.259-38.16h8.572l9.973,29.256c0.657,1.704,1.123,3.354,1.402,4.947h1.154c0.547-1.482,1.097-3.132,1.647-4.947l9.89-29.256
			H494.061z"/>
		<path style="fill:#FFFFFF;" d="M510.694,635.467v46.071c-0.057,1.704,0.355,2.981,1.234,3.833
			c0.879,0.852,2.197,1.274,3.957,1.274h3.709l0.905,6.184c-1.593,0.711-4.148,1.07-7.663,1.07c-3.132,0-5.607-0.919-7.418-2.76
			c-1.814-1.841-2.72-4.437-2.72-7.79v-47.882H510.694z"/>
		<path style="fill:#FFFFFF;" d="M529.659,659.616l-0.744-5.852c7.254-1.264,13.766-1.898,19.534-1.898
			c4.889,0,8.488,0.989,10.795,2.968c2.307,1.979,3.461,5.413,3.461,10.302v28.022h-6.261l-0.909-6.345
			c-4.615,4.725-9.97,7.086-16.07,7.086c-3.736,0-6.717-0.989-8.941-2.968c-2.227-1.975-3.34-4.779-3.34-8.404v-4.205
			c0-3.186,0.989-5.657,2.968-7.418c1.979-1.757,4.779-2.636,8.407-2.636h16.154v-3.132c-0.057-2.472-0.634-4.175-1.73-5.111
			c-1.1-0.932-3.189-1.398-6.264-1.398C543.693,658.627,538.009,658.956,529.659,659.616z M539.38,644.945h-2.72
			c-1.372,0-2.059-0.741-2.059-2.227v-4.45c0-1.482,0.687-2.223,2.059-2.223h2.72c1.429,0,2.143,0.741,2.143,2.223v4.45
			C541.523,644.203,540.809,644.945,539.38,644.945z M535.262,679.396v2.143c0,1.979,0.466,3.407,1.398,4.286
			c0.936,0.879,2.418,1.318,4.453,1.318c4.779,0,9.313-1.868,13.599-5.604v-7.254h-14.672c-1.757,0.057-2.995,0.51-3.709,1.362
			S535.262,677.746,535.262,679.396z M553.968,644.945h-2.636c-1.429,0-2.143-0.741-2.143-2.227v-4.45
			c0-1.482,0.714-2.223,2.143-2.223h2.636c1.486,0,2.227,0.741,2.227,2.223v4.45C556.195,644.203,555.454,644.945,553.968,644.945z"
			/>
		<path style="fill:#FFFFFF;" d="M611.214,652.939l-14.34,38.241c-0.55,1.318-1.482,1.979-2.8,1.979H586.9
			c-1.372,0-2.28-0.661-2.72-1.979l-14.34-38.241h8.491l9.393,27.69l2.227,6.925h1.07l2.391-6.925l9.313-27.69H611.214z"/>
		<path style="fill:#FFFFFF;" d="M621.952,635.796h3.79c1.539,0,2.311,0.771,2.311,2.307v4.615c0,1.596-0.771,2.391-2.311,2.391
			h-3.79c-1.539,0-2.307-0.795-2.307-2.391v-4.615C619.644,636.567,620.412,635.796,621.952,635.796z M627.804,693.159h-7.911
			v-40.219h7.911V693.159z"/>
		<path style="fill:#FFFFFF;" d="M665.934,651.866l-0.905,7.502h-2.472c-3.132,0-7.941,1.539-14.424,4.615v29.176h-7.995v-40.219
			h6.181l0.825,6.1c5.989-4.782,11.62-7.173,16.895-7.173H665.934z"/>
		<path style="fill:#FFFFFF;" d="M674.951,659.616l-0.745-5.852c7.254-1.264,13.766-1.898,19.534-1.898
			c4.889,0,8.488,0.989,10.795,2.968c2.307,1.979,3.461,5.413,3.461,10.302v28.022h-6.261l-0.909-6.345
			c-4.615,4.725-9.97,7.086-16.07,7.086c-3.736,0-6.717-0.989-8.941-2.968c-2.227-1.975-3.34-4.779-3.34-8.404v-4.205
			c0-3.186,0.989-5.657,2.968-7.418c1.979-1.757,4.779-2.636,8.407-2.636h16.154v-3.132c-0.057-2.472-0.634-4.175-1.73-5.111
			c-1.1-0.932-3.189-1.398-6.264-1.398C688.986,658.627,683.302,658.956,674.951,659.616z M680.555,679.396v2.143
			c0,1.979,0.466,3.407,1.398,4.286c0.936,0.879,2.418,1.318,4.454,1.318c4.779,0,9.313-1.868,13.599-5.604v-7.254h-14.672
			c-1.757,0.057-2.995,0.51-3.709,1.362C680.911,676.498,680.555,677.746,680.555,679.396z"/>
		<path style="fill:#FFFFFF;" d="M738.048,677.333l-11.208-2.8c-3.354-0.879-5.718-2.183-7.089-3.917
			c-1.375-1.73-2.059-4.242-2.059-7.539c0-4.45,1.194-7.445,3.585-8.984c2.388-1.539,6.496-2.28,12.321-2.227
			c6.429,0.111,12.143,0.577,17.143,1.402l-0.661,5.771c-8.407-0.275-13.488-0.412-15.249-0.412c-3.9,0-6.442,0.235-7.623,0.701
			c-1.18,0.466-1.771,1.717-1.771,3.749c0,0.936,0.08,1.69,0.248,2.267c0.164,0.577,0.587,1.056,1.274,1.442
			c0.688,0.382,1.224,0.644,1.61,0.781c0.382,0.137,1.234,0.399,2.555,0.785l11.372,2.8c3.407,0.879,5.822,2.129,7.254,3.749
			c1.429,1.623,2.143,4.135,2.143,7.542c0,4.725-1.308,7.844-3.917,9.353c-2.609,1.512-7.126,2.267-13.555,2.267
			c-5.607,0-10.936-0.382-15.99-1.154l0.577-5.932c3.075,0.275,7.663,0.413,13.763,0.413c4.504,0,7.529-0.315,9.065-0.949
			c1.539-0.63,2.311-1.965,2.311-3.997c0-0.879-0.111-1.606-0.332-2.183c-0.218-0.577-0.687-1.056-1.402-1.442
			c-0.714-0.386-1.274-0.647-1.687-0.785C740.315,677.9,739.42,677.665,738.048,677.333z"/>
		<path style="fill:#FFFFFF;" d="M785.438,686.646l0.906,6.184c-2.529,0.711-5.688,1.07-9.477,1.07c-3.407,0-6.003-0.976-7.79-2.924
			c-1.784-1.952-2.676-4.739-2.676-8.367V659.12h-7.338v-5.768l7.338-0.332v-11.865h7.911v11.784h12.445v6.181H774.31v22.419
			c0,1.868,0.399,3.186,1.194,3.954c0.798,0.771,2.156,1.154,4.081,1.154H785.438z"/>
		<path style="fill:#FFFFFF;" d="M798.101,656.729c2.914-3.24,7.857-4.863,14.836-4.863s11.922,1.623,14.836,4.863
			c2.911,3.243,4.366,8.709,4.366,16.402s-1.455,13.133-4.366,16.318c-2.914,3.186-7.857,4.779-14.836,4.779
			s-11.922-1.593-14.836-4.779c-2.911-3.186-4.366-8.625-4.366-16.318S795.19,659.972,798.101,656.729z M821.508,661.675
			c-1.539-2.032-4.396-3.048-8.572-3.048s-7.032,1.016-8.572,3.048c-1.539,2.032-2.307,5.852-2.307,11.456
			c0,5.55,0.768,9.343,2.307,11.375c1.539,2.032,4.397,3.048,8.572,3.048s7.032-1.016,8.572-3.048
			c1.539-2.032,2.307-5.825,2.307-11.375C823.816,667.527,823.048,663.708,821.508,661.675z"/>
	</g>
	<g>
		<path style="fill:#FFFFFF;" d="M326.13,752.701h-18.049v49.532h-8.324v-49.532h-17.885v-7.334h44.257V752.701z"/>
		<path style="fill:#FFFFFF;" d="M353.79,760.941l-0.907,7.502h-2.472c-3.132,0-7.941,1.539-14.424,4.615v29.176h-7.995v-40.219
			h6.182l0.823,6.1c5.989-4.782,11.622-7.173,16.895-7.173H353.79z"/>
		<path style="fill:#FFFFFF;" d="M363.465,768.691l-0.741-5.852c7.25-1.264,13.763-1.898,19.531-1.898
			c4.889,0,8.491,0.989,10.798,2.968s3.461,5.413,3.461,10.302v28.022h-6.264l-0.905-6.345c-4.614,4.725-9.973,7.086-16.07,7.086
			c-3.736,0-6.721-0.989-8.941-2.968c-2.228-1.975-3.342-4.779-3.342-8.404v-4.205c0-3.186,0.989-5.657,2.966-7.418
			c1.979-1.757,4.782-2.636,8.411-2.636h16.151v-3.132c-0.054-2.472-0.63-4.175-1.73-5.111c-1.1-0.932-3.186-1.398-6.264-1.398
			C377.499,767.701,371.818,768.03,363.465,768.691z M369.068,788.47v2.143c0,1.979,0.47,3.407,1.402,4.286
			c0.932,0.879,2.415,1.318,4.454,1.318c4.775,0,9.309-1.868,13.595-5.604v-7.254h-14.668c-1.757,0.057-2.998,0.51-3.709,1.362
			C369.424,785.573,369.068,786.82,369.068,788.47z"/>
		<path style="fill:#FFFFFF;" d="M435.881,749.653h-8.159c-2.472,0-4.215,0.466-5.232,1.398c-1.019,0.936-1.526,2.555-1.526,4.863
			v6.1h12.445v6.181h-12.445v34.039h-7.995v-34.039h-7.25v-5.768l7.25-0.412v-7.006c0-3.9,0.936-6.855,2.804-8.86
			s4.916-3.008,9.148-3.008c5.164,0,9.038,0.194,11.62,0.577L435.881,749.653z"/>
		<path style="fill:#FFFFFF;" d="M446.697,744.87h3.789c1.539,0,2.311,0.771,2.311,2.307v4.615c0,1.596-0.771,2.391-2.311,2.391
			h-3.789c-1.539,0-2.307-0.795-2.307-2.391v-4.615C444.389,745.642,445.157,744.87,446.697,744.87z M452.549,802.233h-7.911
			v-40.219h7.911V802.233z"/>
		<path style="fill:#FFFFFF;" d="M478.153,782.454h-5.027c0.275,2.361,0.413,4.45,0.413,6.264v13.515h-7.995v-57.691h8.079v25.303
			c0,2.361-0.168,4.641-0.496,6.838h4.947l12.113-14.668h9.232l-12.116,14.588c-0.714,0.989-1.704,1.979-2.965,2.968v0.164
			c1.043,0.825,2.029,1.979,2.965,3.461l13.434,19.038h-9.229L478.153,782.454z"/>
		<path style="fill:#FFFFFF;" d="M517.279,744.542v46.071c-0.057,1.704,0.355,2.981,1.234,3.833
			c0.879,0.852,2.197,1.274,3.957,1.274h3.709l0.905,6.184c-1.593,0.711-4.148,1.07-7.663,1.07c-3.132,0-5.607-0.919-7.418-2.76
			c-1.814-1.841-2.72-4.437-2.72-7.79v-47.882H517.279z"/>
		<path style="fill:#FFFFFF;" d="M560.137,785.998h-18.049c0.382,4.175,1.469,6.975,3.253,8.404c1.787,1.432,4.712,2.143,8.78,2.143
			c3.572,0,8.267-0.329,14.092-0.989l0.741,5.275c-3.625,1.593-8.927,2.391-15.906,2.391c-7.032,0-12.019-1.593-14.957-4.779
			c-2.941-3.189-4.41-8.656-4.41-16.402c0-7.8,1.442-13.27,4.326-16.402c2.884-3.132,7.653-4.698,14.3-4.698
			c6.154,0,10.631,1.127,13.434,3.38c2.804,2.254,4.202,5.634,4.202,10.138C569.943,782.152,566.673,785.998,560.137,785.998z
			 M542.005,779.814h15.99c2.636,0,3.957-1.784,3.957-5.356c-0.057-2.472-0.758-4.215-2.103-5.235
			c-1.348-1.016-3.722-1.523-7.13-1.523c-3.957,0-6.704,0.838-8.243,2.512C542.94,771.89,542.115,775.089,542.005,779.814z"/>
		<path style="fill:#FFFFFF;" d="M610.021,802.233l-0.657-5.523c-5.168,4.343-10.44,6.513-15.825,6.513
			c-4.947,0-8.531-1.771-10.755-5.315c-2.227-3.545-3.337-8.86-3.337-15.95c0-7.69,1.234-13.116,3.706-16.275
			c2.475-3.159,6.348-4.742,11.623-4.742c5.054,0,9.668,1.211,13.844,3.629c-0.218-2.361-0.329-5-0.329-7.914v-12.113h7.995v57.691
			H610.021z M608.291,791.27v-21.426c-5-1.321-8.847-1.979-11.54-1.979c-3.407,0-5.768,0.946-7.086,2.844
			c-1.318,1.895-1.979,5.617-1.979,11.167c0,5.55,0.647,9.34,1.938,11.372c1.288,2.036,3.501,3.052,6.633,3.052
			c2.032,0,3.833-0.359,5.399-1.073C603.224,794.513,605.434,793.195,608.291,791.27z"/>
		<path style="fill:#FFFFFF;" d="M647.108,786.408l-11.208-2.8c-3.354-0.879-5.718-2.183-7.089-3.917
			c-1.375-1.73-2.059-4.242-2.059-7.539c0-4.45,1.194-7.445,3.585-8.984c2.388-1.539,6.496-2.28,12.321-2.227
			c6.429,0.111,12.143,0.577,17.143,1.402l-0.661,5.771c-8.407-0.275-13.488-0.413-15.249-0.413c-3.9,0-6.442,0.235-7.623,0.701
			c-1.18,0.466-1.771,1.717-1.771,3.749c0,0.936,0.08,1.69,0.248,2.267c0.164,0.577,0.587,1.056,1.274,1.442
			c0.687,0.382,1.224,0.644,1.61,0.781c0.382,0.138,1.234,0.399,2.555,0.785l11.372,2.8c3.407,0.879,5.822,2.129,7.254,3.749
			c1.429,1.623,2.143,4.135,2.143,7.542c0,4.725-1.308,7.844-3.917,9.353c-2.609,1.512-7.126,2.267-13.555,2.267
			c-5.607,0-10.936-0.382-15.99-1.154l0.577-5.932c3.075,0.275,7.663,0.413,13.763,0.413c4.504,0,7.529-0.315,9.065-0.949
			c1.539-0.63,2.311-1.965,2.311-3.997c0-0.879-0.111-1.606-0.332-2.183c-0.218-0.577-0.687-1.056-1.402-1.442
			c-0.714-0.386-1.274-0.647-1.687-0.785C649.375,786.974,648.48,786.74,647.108,786.408z"/>
		<path style="fill:#FFFFFF;" d="M709.793,762.014l-14.34,38.241c-0.55,1.318-1.482,1.979-2.8,1.979h-7.173
			c-1.372,0-2.28-0.661-2.72-1.979l-14.34-38.241h8.491l9.393,27.69l2.227,6.925h1.07l2.391-6.925l9.313-27.69H709.793z"/>
		<path style="fill:#FFFFFF;" d="M742.437,785.998h-18.049c0.382,4.175,1.469,6.975,3.253,8.404c1.787,1.432,4.712,2.143,8.78,2.143
			c3.572,0,8.266-0.329,14.092-0.989l0.741,5.275c-3.625,1.593-8.927,2.391-15.906,2.391c-7.032,0-12.019-1.593-14.957-4.779
			c-2.941-3.189-4.41-8.656-4.41-16.402c0-7.8,1.442-13.27,4.326-16.402c2.884-3.132,7.653-4.698,14.3-4.698
			c6.154,0,10.631,1.127,13.434,3.38s4.202,5.634,4.202,10.138C752.242,782.152,748.973,785.998,742.437,785.998z M724.304,779.814
			h15.99c2.636,0,3.957-1.784,3.957-5.356c-0.057-2.472-0.758-4.215-2.103-5.235c-1.348-1.016-3.722-1.523-7.13-1.523
			c-3.957,0-6.704,0.838-8.243,2.512C725.24,771.89,724.415,775.089,724.304,779.814z"/>
		<path style="fill:#FFFFFF;" d="M788.736,760.941l-0.906,7.502h-2.472c-3.132,0-7.941,1.539-14.424,4.615v29.176h-7.995v-40.219
			h6.181l0.825,6.1c5.989-4.782,11.62-7.173,16.895-7.173H788.736z"/>
		<path style="fill:#FFFFFF;" d="M810.524,782.454h-5.027c0.275,2.361,0.412,4.45,0.412,6.264v13.515h-7.995v-57.691h8.079v25.303
			c0,2.361-0.168,4.641-0.496,6.838h4.946l12.113-14.668h9.232l-12.116,14.588c-0.714,0.989-1.704,1.979-2.965,2.968v0.164
			c1.043,0.825,2.029,1.979,2.965,3.461l13.434,19.038h-9.229L810.524,782.454z"/>
		<path style="fill:#FFFFFF;" d="M864.831,785.998h-18.049c0.382,4.175,1.469,6.975,3.253,8.404c1.787,1.432,4.712,2.143,8.78,2.143
			c3.572,0,8.267-0.329,14.092-0.989l0.741,5.275c-3.625,1.593-8.927,2.391-15.906,2.391c-7.032,0-12.019-1.593-14.957-4.779
			c-2.941-3.189-4.41-8.656-4.41-16.402c0-7.8,1.442-13.27,4.326-16.402c2.884-3.132,7.653-4.698,14.3-4.698
			c6.154,0,10.631,1.127,13.434,3.38c2.804,2.254,4.202,5.634,4.202,10.138C874.637,782.152,871.367,785.998,864.831,785.998z
			 M846.699,779.814h15.99c2.636,0,3.957-1.784,3.957-5.356c-0.057-2.472-0.758-4.215-2.103-5.235
			c-1.348-1.016-3.722-1.523-7.13-1.523c-3.957,0-6.704,0.838-8.243,2.512C847.634,771.89,846.809,775.089,846.699,779.814z"/>
		<path style="fill:#FFFFFF;" d="M909.038,795.72l0.905,6.184c-2.529,0.711-5.688,1.07-9.477,1.07c-3.407,0-6.003-0.976-7.79-2.924
			c-1.784-1.952-2.676-4.739-2.676-8.367v-23.488h-7.338v-5.768l7.338-0.332v-11.865h7.911v11.784h12.445v6.181h-12.445v22.419
			c0,1.868,0.399,3.186,1.194,3.954c0.798,0.771,2.156,1.154,4.081,1.154H909.038z"/>
	</g>
	<g>
		<path style="fill:#FFFFFF;" d="M299.15,867.275h-21.099c-1.923,0-3.283,0.399-4.08,1.194c-0.796,0.798-1.194,2.156-1.194,4.081
			v12.281h23.242v6.674h-23.242v25.715h-8.243v-46.4c0-3.35,1.031-5.963,3.092-7.831c2.059-1.868,4.848-2.804,8.365-2.804
			c10.879,0,18.735,0.248,23.57,0.745L299.15,867.275z"/>
		<path style="fill:#FFFFFF;" d="M312.098,859.857h3.791c1.538,0,2.307,0.771,2.307,2.307v4.614c0,1.596-0.77,2.391-2.307,2.391
			h-3.791c-1.539,0-2.307-0.795-2.307-2.391v-4.614C309.791,860.628,310.559,859.857,312.098,859.857z M317.95,917.22h-7.913
			v-40.219h7.913V917.22z"/>
		<path style="fill:#FFFFFF;" d="M337.704,877.001l0.495,6.181c6.318-4.833,12.252-7.254,17.802-7.254
			c3.57,0,6.276,0.949,8.117,2.844c1.841,1.898,2.762,4.658,2.762,8.283v30.165h-7.995v-27.858c0-2.525-0.371-4.269-1.113-5.232
			c-0.741-0.962-2.074-1.442-3.996-1.442c-2.089,0-4.177,0.466-6.264,1.398c-2.089,0.936-4.945,2.475-8.572,4.618v28.515h-7.995
			v-40.219H337.704z"/>
		<path style="fill:#FFFFFF;" d="M386.312,877.001l0.495,6.181c6.318-4.833,12.252-7.254,17.802-7.254
			c3.57,0,6.276,0.949,8.117,2.844c1.841,1.898,2.762,4.658,2.762,8.283v30.165h-7.995v-27.858c0-2.525-0.371-4.269-1.113-5.232
			c-0.741-0.962-2.074-1.442-3.996-1.442c-2.089,0-4.177,0.466-6.264,1.398c-2.089,0.936-4.945,2.475-8.572,4.618v28.515h-7.995
			v-40.219H386.312z"/>
		<path style="fill:#FFFFFF;" d="M430.323,859.857h3.791c1.538,0,2.307,0.771,2.307,2.307v4.614c0,1.596-0.77,2.391-2.307,2.391
			h-3.791c-1.539,0-2.307-0.795-2.307-2.391v-4.614C428.016,860.628,428.784,859.857,430.323,859.857z M436.175,917.22h-7.913
			v-40.219h7.913V917.22z"/>
		<path style="fill:#FFFFFF;" d="M467.204,901.394l-11.209-2.8c-3.352-0.879-5.714-2.183-7.088-3.917
			c-1.373-1.73-2.061-4.242-2.061-7.539c0-4.45,1.196-7.445,3.585-8.984c2.391-1.539,6.498-2.28,12.323-2.227
			c6.427,0.111,12.142,0.577,17.142,1.402l-0.659,5.771c-8.406-0.275-13.49-0.412-15.247-0.412c-3.902,0-6.442,0.235-7.624,0.701
			c-1.182,0.466-1.771,1.717-1.771,3.749c0,0.936,0.082,1.69,0.246,2.267c0.164,0.577,0.59,1.056,1.278,1.442
			c0.686,0.382,1.222,0.644,1.606,0.781c0.384,0.138,1.237,0.399,2.555,0.785l11.374,2.8c3.406,0.879,5.823,2.13,7.252,3.749
			c1.429,1.623,2.143,4.135,2.143,7.542c0,4.725-1.305,7.844-3.914,9.353c-2.611,1.513-7.13,2.267-13.558,2.267
			c-5.604,0-10.934-0.382-15.988-1.154l0.577-5.932c3.075,0.275,7.665,0.412,13.763,0.412c4.505,0,7.527-0.315,9.066-0.949
			c1.538-0.63,2.307-1.965,2.307-3.997c0-0.879-0.111-1.606-0.33-2.183c-0.22-0.577-0.687-1.056-1.4-1.442
			c-0.714-0.386-1.278-0.647-1.69-0.785C469.471,901.961,468.577,901.726,467.204,901.394z"/>
		<path style="fill:#FFFFFF;" d="M499.559,859.529v15.577c0,2.747-0.193,5.356-0.577,7.827c6.373-4.668,12.225-7.006,17.556-7.006
			c3.515,0,6.207,0.949,8.077,2.844c1.866,1.898,2.802,4.658,2.802,8.283v30.165h-7.995v-27.858c0-2.525-0.371-4.269-1.113-5.232
			c-0.741-0.962-2.074-1.442-3.996-1.442c-2.089,0-4.219,0.466-6.388,1.398c-2.171,0.936-4.985,2.448-8.448,4.534v28.599h-7.995
			v-57.691H499.559z"/>
		<path style="fill:#FFFFFF;" d="M600.848,867.688h-18.049v49.532h-8.323v-49.532h-17.885v-7.334h44.257V867.688z"/>
		<path style="fill:#FFFFFF;" d="M628.506,875.927l-0.907,7.502h-2.472c-3.132,0-7.941,1.539-14.424,4.614v29.176h-7.995v-40.219
			h6.182l0.823,6.1c5.989-4.782,11.622-7.173,16.895-7.173H628.506z"/>
		<path style="fill:#FFFFFF;" d="M638.181,883.677l-0.741-5.852c7.252-1.264,13.763-1.898,19.533-1.898
			c4.89,0,8.488,0.989,10.797,2.968c2.307,1.979,3.461,5.413,3.461,10.302v28.022h-6.264l-0.905-6.345
			c-4.616,4.725-9.974,7.086-16.072,7.086c-3.738,0-6.717-0.989-8.942-2.968c-2.225-1.975-3.339-4.779-3.339-8.404v-4.205
			c0-3.186,0.989-5.657,2.968-7.418c1.979-1.757,4.781-2.636,8.406-2.636h16.154v-3.132c-0.055-2.472-0.632-4.175-1.73-5.111
			c-1.1-0.932-3.188-1.398-6.264-1.398C652.219,882.688,646.532,883.017,638.181,883.677z M643.785,903.457v2.143
			c0,1.979,0.466,3.407,1.402,4.286c0.934,0.879,2.416,1.318,4.45,1.318c4.781,0,9.313-1.868,13.599-5.604v-7.254h-14.67
			c-1.759,0.057-2.995,0.51-3.709,1.362C644.142,900.559,643.785,901.807,643.785,903.457z"/>
		<path style="fill:#FFFFFF;" d="M690.606,877.001l0.495,6.181c6.318-4.833,12.252-7.254,17.802-7.254
			c3.57,0,6.276,0.949,8.117,2.844c1.841,1.898,2.762,4.658,2.762,8.283v30.165h-7.995v-27.858c0-2.525-0.371-4.269-1.113-5.232
			c-0.741-0.962-2.074-1.442-3.996-1.442c-2.089,0-4.177,0.466-6.264,1.398c-2.089,0.936-4.945,2.475-8.572,4.618v28.515h-7.995
			v-40.219H690.606z"/>
		<path style="fill:#FFFFFF;" d="M750.53,901.394l-11.209-2.8c-3.352-0.879-5.714-2.183-7.088-3.917
			c-1.373-1.73-2.061-4.242-2.061-7.539c0-4.45,1.196-7.445,3.585-8.984c2.391-1.539,6.497-2.28,12.323-2.227
			c6.427,0.111,12.142,0.577,17.142,1.402l-0.659,5.771c-8.406-0.275-13.49-0.412-15.247-0.412c-3.902,0-6.442,0.235-7.624,0.701
			c-1.182,0.466-1.771,1.717-1.771,3.749c0,0.936,0.082,1.69,0.246,2.267s0.59,1.056,1.278,1.442
			c0.686,0.382,1.222,0.644,1.606,0.781c0.384,0.138,1.237,0.399,2.555,0.785l11.374,2.8c3.406,0.879,5.823,2.13,7.252,3.749
			c1.429,1.623,2.143,4.135,2.143,7.542c0,4.725-1.305,7.844-3.914,9.353c-2.611,1.513-7.13,2.267-13.558,2.267
			c-5.604,0-10.934-0.382-15.988-1.154l0.577-5.932c3.075,0.275,7.665,0.412,13.763,0.412c4.505,0,7.527-0.315,9.066-0.949
			c1.538-0.63,2.307-1.965,2.307-3.997c0-0.879-0.111-1.606-0.33-2.183c-0.22-0.577-0.687-1.056-1.4-1.442
			c-0.714-0.386-1.278-0.647-1.69-0.785C752.797,901.961,751.904,901.726,750.53,901.394z"/>
		<path style="fill:#FFFFFF;" d="M781.405,877.001l0.577,6.181c2.088-2.197,4.668-3.957,7.747-5.275
			c3.077-1.318,6.07-1.979,8.984-1.979c9.122,0,13.682,7.143,13.682,21.429c0,7.582-1.241,12.955-3.709,16.114
			c-2.475,3.159-6.345,4.739-11.623,4.739c-5.384,0-10.218-1.345-14.504-4.038c0.218,2.307,0.273,5.027,0.164,8.159v11.291h-7.913
			v-56.621H781.405z M782.723,888.704v20.44c5.548,1.429,9.615,2.143,12.197,2.143c3.464,0,5.865-0.949,7.213-2.844
			c1.341-1.898,2.019-5.617,2.019-11.167c0-5.329-0.617-9.068-1.858-11.211c-1.234-2.143-3.333-3.213-6.305-3.213
			C792.53,882.852,788.107,884.804,782.723,888.704z"/>
		<path style="fill:#FFFFFF;" d="M826.54,880.79c2.914-3.24,7.857-4.863,14.836-4.863s11.922,1.623,14.836,4.863
			c2.911,3.243,4.366,8.709,4.366,16.402c0,7.693-1.455,13.133-4.366,16.318c-2.914,3.186-7.857,4.779-14.836,4.779
			s-11.922-1.593-14.836-4.779c-2.911-3.186-4.366-8.625-4.366-16.318C822.174,889.499,823.63,884.033,826.54,880.79z
			 M849.948,885.737c-1.539-2.032-4.396-3.048-8.572-3.048s-7.032,1.016-8.572,3.048c-1.539,2.032-2.307,5.852-2.307,11.456
			c0,5.55,0.768,9.343,2.307,11.375c1.539,2.032,4.397,3.048,8.572,3.048s7.032-1.016,8.572-3.048
			c1.539-2.032,2.307-5.825,2.307-11.375C852.255,891.589,851.488,887.769,849.948,885.737z"/>
		<path style="fill:#FFFFFF;" d="M897.616,875.927l-0.905,7.502h-2.472c-3.132,0-7.941,1.539-14.424,4.614v29.176h-7.995v-40.219
			h6.181l0.825,6.1c5.989-4.782,11.62-7.173,16.895-7.173H897.616z"/>
		<path style="fill:#FFFFFF;" d="M931.155,910.707l0.905,6.184c-2.529,0.711-5.688,1.07-9.477,1.07c-3.407,0-6.003-0.976-7.79-2.924
			c-1.784-1.952-2.676-4.739-2.676-8.367v-23.488h-7.338v-5.768l7.338-0.332v-11.865h7.911v11.784h12.445v6.181h-12.445V905.6
			c0,1.868,0.399,3.186,1.194,3.954c0.798,0.771,2.156,1.154,4.081,1.154H931.155z"/>
		<path style="fill:#FFFFFF;" d="M184.43,997.105h-8.241v-56.866h8.241V997.105z"/>
		<path style="fill:#FFFFFF;" d="M204.778,956.886l0.495,6.181c6.318-4.832,12.252-7.254,17.802-7.254
			c3.57,0,6.276,0.949,8.117,2.844c1.841,1.898,2.762,4.658,2.762,8.283v30.165h-7.995v-27.858c0-2.525-0.371-4.269-1.113-5.232
			c-0.741-0.962-2.074-1.442-3.996-1.442c-2.089,0-4.177,0.466-6.264,1.398c-2.089,0.936-4.945,2.475-8.572,4.618v28.515h-7.995
			v-40.219H204.778z"/>
		<path style="fill:#FFFFFF;" d="M273.537,944.524h-8.159c-2.473,0-4.219,0.466-5.233,1.398c-1.018,0.936-1.526,2.555-1.526,4.863
			v6.1h12.445v6.181h-12.445v34.039h-7.995v-34.039h-7.252v-5.768l7.252-0.413v-7.006c0-3.9,0.934-6.855,2.804-8.86
			c1.866-2.005,4.916-3.008,9.148-3.008c5.163,0,9.036,0.195,11.62,0.577L273.537,944.524z"/>
		<path style="fill:#FFFFFF;" d="M306.28,955.812l-0.907,7.502h-2.472c-3.132,0-7.941,1.539-14.424,4.615v29.176h-7.995v-40.219
			h6.182l0.823,6.1c5.989-4.782,11.622-7.173,16.895-7.173H306.28z"/>
		<path style="fill:#FFFFFF;" d="M315.955,963.563l-0.741-5.852c7.252-1.264,13.763-1.898,19.533-1.898
			c4.889,0,8.488,0.989,10.797,2.968c2.307,1.979,3.461,5.413,3.461,10.302v28.022h-6.264l-0.905-6.345
			c-4.616,4.725-9.973,7.086-16.072,7.086c-3.738,0-6.717-0.989-8.942-2.968c-2.225-1.975-3.338-4.779-3.338-8.404v-4.205
			c0-3.186,0.989-5.657,2.968-7.418c1.979-1.757,4.78-2.636,8.406-2.636h16.154v-3.132c-0.055-2.472-0.632-4.175-1.73-5.111
			c-1.1-0.932-3.188-1.398-6.264-1.398C329.993,962.573,324.305,962.902,315.955,963.563z M321.559,983.342v2.143
			c0,1.979,0.466,3.407,1.402,4.286c0.934,0.879,2.416,1.318,4.45,1.318c4.781,0,9.313-1.868,13.599-5.604v-7.254h-14.67
			c-1.759,0.057-2.995,0.51-3.709,1.362C321.916,980.444,321.559,981.692,321.559,983.342z"/>
		<path style="fill:#FFFFFF;" d="M379.713,981.279l-11.209-2.8c-3.352-0.879-5.714-2.183-7.088-3.917
			c-1.373-1.73-2.061-4.242-2.061-7.539c0-4.45,1.196-7.445,3.585-8.984c2.391-1.539,6.497-2.28,12.323-2.227
			c6.427,0.111,12.142,0.577,17.142,1.402l-0.659,5.771c-8.406-0.275-13.49-0.412-15.247-0.412c-3.902,0-6.442,0.235-7.624,0.701
			s-1.771,1.717-1.771,3.749c0,0.936,0.082,1.69,0.246,2.267c0.164,0.577,0.59,1.056,1.278,1.442
			c0.686,0.382,1.222,0.644,1.606,0.781s1.237,0.399,2.555,0.785l11.374,2.8c3.406,0.879,5.823,2.13,7.252,3.749
			c1.429,1.623,2.143,4.135,2.143,7.542c0,4.725-1.305,7.844-3.914,9.353c-2.611,1.512-7.13,2.267-13.558,2.267
			c-5.604,0-10.934-0.382-15.988-1.154l0.577-5.932c3.075,0.275,7.665,0.412,13.763,0.412c4.506,0,7.527-0.315,9.066-0.949
			c1.538-0.63,2.307-1.965,2.307-3.997c0-0.879-0.111-1.606-0.33-2.183c-0.22-0.577-0.687-1.056-1.4-1.442
			c-0.714-0.386-1.278-0.647-1.69-0.785C381.98,981.846,381.086,981.611,379.713,981.279z"/>
		<path style="fill:#FFFFFF;" d="M427.759,990.592l0.907,6.184c-2.527,0.711-5.686,1.07-9.477,1.07
			c-3.407,0-6.005-0.976-7.789-2.924c-1.786-1.952-2.679-4.739-2.679-8.367v-23.488h-7.334v-5.768l7.334-0.332v-11.865h7.913v11.784
			h12.445v6.181h-12.445v22.419c0,1.868,0.397,3.186,1.196,3.954c0.795,0.771,2.155,1.154,4.08,1.154H427.759z"/>
		<path style="fill:#FFFFFF;" d="M464.541,955.812l-0.907,7.502h-2.472c-3.132,0-7.941,1.539-14.424,4.615v29.176h-7.995v-40.219
			h6.182l0.823,6.1c5.989-4.782,11.622-7.173,16.895-7.173H464.541z"/>
		<path style="fill:#FFFFFF;" d="M508.585,956.886v40.219h-6.347l-0.577-5.523c-5.88,4.396-11.595,6.593-17.143,6.593
			c-7.307,0-10.961-3.706-10.961-11.124v-30.165h7.995v27.858c-0.055,2.472,0.355,4.189,1.236,5.151
			c0.879,0.959,2.389,1.442,4.532,1.442c3.132,0,7.582-1.787,13.352-5.359v-29.092H508.585z"/>
		<path style="fill:#FFFFFF;" d="M552.298,990.512l0.741,5.356c-4.066,1.486-8.736,2.227-14.011,2.227
			c-7.032,0-11.991-1.579-14.876-4.739c-2.884-3.159-4.326-8.612-4.326-16.362c0-7.747,1.442-13.213,4.326-16.399
			c2.886-3.186,7.844-4.782,14.876-4.782c5.384,0,9.836,0.688,13.352,2.062l-1.071,5.111c-4.122-0.275-7.747-0.412-10.879-0.412
			c-4.616,0-7.817,1.016-9.601,3.048c-1.787,2.032-2.68,5.825-2.68,11.372c0,5.55,0.892,9.343,2.68,11.375
			c1.784,2.032,4.985,3.048,9.601,3.048C544.934,991.417,548.891,991.115,552.298,990.512z"/>
		<path style="fill:#FFFFFF;" d="M587.086,990.592l0.907,6.184c-2.527,0.711-5.686,1.07-9.477,1.07
			c-3.407,0-6.005-0.976-7.789-2.924c-1.786-1.952-2.68-4.739-2.68-8.367v-23.488h-7.334v-5.768l7.334-0.332v-11.865h7.913v11.784
			h12.445v6.181h-12.445v22.419c0,1.868,0.397,3.186,1.196,3.954c0.795,0.771,2.155,1.154,4.08,1.154H587.086z"/>
		<path style="fill:#FFFFFF;" d="M632.977,956.886v40.219h-6.347l-0.577-5.523c-5.88,4.396-11.595,6.593-17.143,6.593
			c-7.307,0-10.961-3.706-10.961-11.124v-30.165h7.995v27.858c-0.055,2.472,0.355,4.189,1.236,5.151
			c0.879,0.959,2.389,1.442,4.532,1.442c3.132,0,7.582-1.787,13.352-5.359v-29.092H632.977z"/>
		<path style="fill:#FFFFFF;" d="M671.546,955.812l-0.907,7.502h-2.472c-3.132,0-7.941,1.539-14.424,4.615v29.176h-7.995v-40.219
			h6.182l0.823,6.1c5.989-4.782,11.622-7.173,16.895-7.173H671.546z"/>
		<path style="fill:#FFFFFF;" d="M704.867,980.87h-18.051c0.384,4.175,1.471,6.975,3.256,8.404c1.784,1.432,4.71,2.143,8.778,2.143
			c3.57,0,8.268-0.329,14.093-0.989l0.741,5.275c-3.627,1.593-8.929,2.391-15.906,2.391c-7.034,0-12.021-1.593-14.959-4.779
			c-2.941-3.189-4.41-8.656-4.41-16.402c0-7.8,1.442-13.27,4.326-16.402c2.886-3.132,7.651-4.698,14.3-4.698
			c6.154,0,10.632,1.127,13.434,3.38c2.802,2.254,4.204,5.634,4.204,10.138C714.674,977.024,711.404,980.87,704.867,980.87z
			 M686.734,974.686h15.99c2.638,0,3.956-1.784,3.956-5.356c-0.055-2.472-0.756-4.215-2.101-5.235
			c-1.348-1.016-3.724-1.523-7.13-1.523c-3.956,0-6.704,0.838-8.241,2.512C687.668,966.762,686.845,969.961,686.734,974.686z"/>
		<path style="fill:#FFFFFF;" d="M776.894,979.961h-22.663l-5.275,17.143h-8.407l17.802-54.643c0.439-1.482,1.455-2.223,3.05-2.223
			h8.406c1.648,0,2.638,0.741,2.968,2.223l17.885,54.643h-8.49L776.894,979.961z M774.751,972.792l-6.675-21.594
			c-0.164-0.493-0.399-1.264-0.701-2.307c-0.302-1.043-0.535-1.814-0.699-2.307h-2.227l-1.318,4.615l-6.675,21.594H774.751z"/>
		<path style="fill:#FFFFFF;" d="M838.962,961.171l-5.688,0.577c0.936,1.868,1.402,4.202,1.402,7.006
			c0,4.561-1.305,7.844-3.914,9.849c-2.612,2.005-7.13,3.008-13.558,3.008c-2.968,0-5.634-0.221-7.995-0.661
			c-0.879,1.154-1.113,2.418-0.701,3.793c0.412,1.372,1.499,2.197,3.256,2.472l14.836,2.307c3.789,0.55,6.496,1.73,8.116,3.545
			c1.623,1.811,2.431,4.45,2.431,7.911c0,4.779-1.398,8.079-4.202,9.89c-2.8,1.814-7.884,2.72-15.245,2.72
			c-7.418,0-12.556-0.892-15.413-2.68c-2.857-1.784-4.286-5.014-4.286-9.682c0-2.254,0.493-4.038,1.482-5.359
			c0.989-1.318,2.639-2.636,4.947-3.954c-1.925-1.593-2.79-3.722-2.596-6.388c0.191-2.663,1.248-4.685,3.172-6.057
			c-3.518-1.814-5.275-5.359-5.275-10.634c0-4.722,1.291-8.075,3.873-10.054c2.582-1.979,7.143-2.968,13.682-2.968
			c4.008,0,7.197,0.359,9.558,1.073h12.529L838.962,961.171z M822.479,995.374l-12.938-1.73c-2.529,2.089-3.793,4.393-3.793,6.922
			c0,2.639,0.755,4.339,2.267,5.111c1.509,0.768,4.712,1.154,9.601,1.154c4.725,0,7.857-0.399,9.397-1.194
			c1.536-0.798,2.307-2.488,2.307-5.071c0-1.868-0.412-3.089-1.237-3.665C827.258,996.323,825.39,995.814,822.479,995.374z
			 M817.204,975.595c3.736,0,6.345-0.51,7.831-1.526c1.482-1.016,2.223-2.787,2.223-5.315c0-2.582-0.728-4.37-2.183-5.359
			c-1.455-0.986-4.078-1.482-7.871-1.482c-3.847,0-6.509,0.496-7.995,1.482c-1.482,0.989-2.223,2.777-2.223,5.359
			c0,2.472,0.755,4.232,2.267,5.275C810.762,975.072,813.415,975.595,817.204,975.595z"/>
		<path style="fill:#FFFFFF;" d="M872.679,980.87H854.63c0.382,4.175,1.469,6.975,3.253,8.404c1.787,1.432,4.712,2.143,8.78,2.143
			c3.572,0,8.266-0.329,14.092-0.989l0.741,5.275c-3.625,1.593-8.927,2.391-15.906,2.391c-7.032,0-12.019-1.593-14.957-4.779
			c-2.941-3.189-4.41-8.656-4.41-16.402c0-7.8,1.442-13.27,4.326-16.402c2.884-3.132,7.653-4.698,14.3-4.698
			c6.154,0,10.631,1.127,13.434,3.38c2.804,2.254,4.202,5.634,4.202,10.138C882.484,977.024,879.215,980.87,872.679,980.87z
			 M854.546,974.686h15.99c2.636,0,3.957-1.784,3.957-5.356c-0.057-2.472-0.758-4.215-2.103-5.235
			c-1.348-1.016-3.722-1.523-7.13-1.523c-3.957,0-6.704,0.838-8.243,2.512C855.482,966.762,854.657,969.961,854.546,974.686z"/>
		<path style="fill:#FFFFFF;" d="M899.94,956.886l0.496,6.181c6.318-4.832,12.251-7.254,17.801-7.254
			c3.572,0,6.278,0.949,8.119,2.844c1.841,1.898,2.76,4.658,2.76,8.283v30.165h-7.995v-27.858c0-2.525-0.369-4.269-1.11-5.232
			c-0.741-0.962-2.076-1.442-3.997-1.442c-2.089,0-4.179,0.466-6.264,1.398c-2.089,0.936-4.947,2.475-8.572,4.618v28.515h-7.995
			v-40.219H899.94z"/>
		<path style="fill:#FFFFFF;" d="M972.641,990.512l0.741,5.356c-4.068,1.486-8.736,2.227-14.011,2.227
			c-7.032,0-11.992-1.579-14.876-4.739c-2.884-3.159-4.326-8.612-4.326-16.362c0-7.747,1.442-13.213,4.326-16.399
			c2.884-3.186,7.844-4.782,14.876-4.782c5.386,0,9.836,0.688,13.35,2.062l-1.07,5.111c-4.122-0.275-7.747-0.412-10.879-0.412
			c-4.615,0-7.817,1.016-9.601,3.048c-1.787,2.032-2.68,5.825-2.68,11.372c0,5.55,0.892,9.343,2.68,11.375
			c1.784,2.032,4.987,3.048,9.601,3.048C965.277,991.417,969.234,991.115,972.641,990.512z"/>
		<path style="fill:#FFFFFF;" d="M1021.811,956.886L1006.234,999c-3.736,9.89-9.89,14.89-18.461,15l-0.822-5.275
			c3.129-0.936,5.604-2.223,7.415-3.873c1.814-1.647,3.27-3.736,4.37-6.264l0.577-1.482h-1.65c-1.536,0-2.472-0.688-2.8-2.059
			l-14.259-38.16h8.572l9.973,29.256c0.657,1.704,1.123,3.354,1.402,4.946h1.154c0.547-1.482,1.097-3.132,1.647-4.946l9.89-29.256
			H1021.811z"/>
	</g>
</g>
</svg>
