<?xml version="1.0" encoding="iso-8859-1"?>
<!-- Generator: Adobe Illustrator 25.2.1, SVG Export Plug-In . SVG Version: 6.00 Build 0)  -->
<svg version="1.1" id="Layer_1" xmlns="http://www.w3.org/2000/svg" xmlns:xlink="http://www.w3.org/1999/xlink" x="0px" y="0px"
	 viewBox="0 0 1400 500" style="enable-background:new 0 0 1400 500;" xml:space="preserve">
<g>
	<g>
		<g>
			<path style="fill:#FFFFFF;" d="M182.639,112h73.386c5.248,0,6.702,1.794,7.979,4.792c0.705,1.657,44.164,105.594,44.164,105.594
				l-105.751-62.814L182.639,112z"/>
		</g>
		<g>
			<polygon style="fill:#FFFFFF;" points="204.79,165.169 310.369,227.659 325.423,263.98 261.856,301.787 			"/>
		</g>
		<g>
			<polygon style="fill:#FFFFFF;" points="263.366,304.894 326.912,267.2 336.543,290.483 298.01,388.399 			"/>
		</g>
		<g>
			<path style="fill:#FFFFFF;" d="M521.466,112H448.08c-5.248,0-6.702,1.794-7.979,4.792
				c-0.705,1.657-44.164,105.594-44.164,105.594l105.751-62.814L521.466,112z"/>
		</g>
		<g>
			<polygon style="fill:#FFFFFF;" points="499.316,165.169 393.736,227.659 378.683,263.98 442.249,301.787 			"/>
		</g>
		<g>
			<polygon style="fill:#FFFFFF;" points="440.739,304.894 377.193,267.2 367.563,290.483 406.095,388.399 			"/>
		</g>
	</g>
	<g>
		<path style="fill:#FFFFFF;" d="M669.118,214.209l-20.316,65.926c-0.599,1.861-1.861,2.79-3.785,2.79h-9.759
			c-1.927,0-3.189-0.929-3.785-2.79l-20.316-65.926h10.258l15.535,53.478c0.333,1.264,0.962,3.785,1.891,7.571h2.69
			c0.399-1.925,1.029-4.448,1.891-7.571l15.438-53.478H669.118z"/>
		<path style="fill:#FFFFFF;" d="M676.707,242.392l-0.896-7.071c8.763-1.525,16.631-2.291,23.602-2.291
			c5.907,0,10.258,1.195,13.045,3.586c2.79,2.39,4.185,6.539,4.185,12.449v33.86h-7.571l-1.095-7.668
			c-5.577,5.71-12.049,8.564-19.42,8.564c-4.515,0-8.116-1.195-10.806-3.586c-2.687-2.39-4.034-5.776-4.034-10.158v-5.078
			c0-3.849,1.195-6.839,3.586-8.963c2.39-2.124,5.776-3.186,10.158-3.186h19.52v-3.785c-0.067-2.987-0.763-5.044-2.091-6.176
			c-1.328-1.126-3.852-1.692-7.568-1.692C693.67,241.197,686.798,241.597,676.707,242.392z M688.457,224.664h-3.286
			c-1.658,0-2.488-0.896-2.488-2.687v-5.377c0-1.794,0.829-2.69,2.488-2.69h3.286c1.728,0,2.59,0.896,2.59,2.69v5.377
			C691.047,223.768,690.184,224.664,688.457,224.664z M683.479,266.294v2.588c0,2.39,0.563,4.118,1.692,5.18s2.923,1.592,5.38,1.592
			c5.774,0,11.253-2.255,16.431-6.772v-8.763h-17.726c-2.127,0.067-3.619,0.614-4.481,1.643
			C683.909,262.793,683.479,264.301,683.479,266.294z M706.085,224.664h-3.186c-1.728,0-2.59-0.896-2.59-2.687v-5.377
			c0-1.794,0.862-2.69,2.59-2.69h3.186c1.792,0,2.687,0.896,2.687,2.69v5.377C708.773,223.768,707.877,224.664,706.085,224.664z"/>
		<path style="fill:#FFFFFF;" d="M774.602,234.325l-18.824,50.89c-4.515,11.95-11.95,17.992-22.307,18.125l-0.996-6.373
			c3.785-1.131,6.772-2.69,8.963-4.681c2.191-1.994,3.949-4.517,5.277-7.571l0.699-1.792h-1.991c-1.861,0-2.989-0.829-3.386-2.49
			l-17.23-46.109h10.358l12.049,35.355c0.796,2.058,1.359,4.049,1.694,5.974h1.392c0.663-1.792,1.328-3.783,1.994-5.974
			l11.95-35.355H774.602z"/>
		<path style="fill:#FFFFFF;" d="M794.222,213.213v55.668c-0.069,2.06,0.43,3.604,1.492,4.632s2.654,1.543,4.781,1.543h4.481
			l1.095,7.468c-1.927,0.862-5.014,1.295-9.262,1.295c-3.783,0-6.772-1.111-8.963-3.335c-2.191-2.224-3.286-5.362-3.286-9.413
			v-57.859H794.222z"/>
		<path style="fill:#FFFFFF;" d="M816.667,242.392l-0.896-7.071c8.763-1.525,16.631-2.291,23.602-2.291
			c5.907,0,10.258,1.195,13.045,3.586c2.79,2.39,4.185,6.539,4.185,12.449v33.86h-7.571l-1.095-7.668
			c-5.577,5.71-12.049,8.564-19.42,8.564c-4.515,0-8.116-1.195-10.806-3.586c-2.687-2.39-4.034-5.776-4.034-10.158v-5.078
			c0-3.849,1.195-6.839,3.586-8.963c2.39-2.124,5.776-3.186,10.158-3.186h19.52v-3.785c-0.067-2.987-0.763-5.044-2.091-6.176
			c-1.328-1.126-3.852-1.692-7.568-1.692C833.631,241.197,826.759,241.597,816.667,242.392z M828.417,224.664h-3.286
			c-1.658,0-2.488-0.896-2.488-2.687v-5.377c0-1.794,0.829-2.69,2.488-2.69h3.286c1.728,0,2.59,0.896,2.59,2.69v5.377
			C831.007,223.768,830.145,224.664,828.417,224.664z M823.439,266.294v2.588c0,2.39,0.563,4.118,1.692,5.18s2.923,1.592,5.38,1.592
			c5.774,0,11.253-2.255,16.431-6.772v-8.763h-17.726c-2.127,0.067-3.619,0.614-4.481,1.643
			C823.869,262.793,823.439,264.301,823.439,266.294z M846.046,224.664h-3.186c-1.728,0-2.59-0.896-2.59-2.687v-5.377
			c0-1.794,0.862-2.69,2.59-2.69h3.186c1.792,0,2.687,0.896,2.687,2.69v5.377C848.733,223.768,847.838,224.664,846.046,224.664z"/>
		<path style="fill:#FFFFFF;" d="M914.701,234.325l-17.329,46.209c-0.663,1.594-1.792,2.39-3.386,2.39h-8.663
			c-1.661,0-2.756-0.796-3.286-2.39l-17.329-46.209h10.258l11.353,33.461l2.69,8.367h1.295l2.887-8.367l11.253-33.461H914.701z"/>
		<path style="fill:#FFFFFF;" d="M927.19,213.61h4.581c1.858,0,2.787,0.932,2.787,2.79v5.577c0,1.927-0.929,2.887-2.787,2.887
			h-4.581c-1.861,0-2.79-0.96-2.79-2.887V216.4C924.401,214.542,925.33,213.61,927.19,213.61z M934.259,282.925H924.7v-48.6h9.559
			V282.925z"/>
		<path style="fill:#FFFFFF;" d="M979.813,233.03l-1.095,9.063h-2.989c-3.783,0-9.595,1.861-17.427,5.577v35.255h-9.661v-48.6h7.471
			l0.996,7.368c7.235-5.774,14.041-8.663,20.416-8.663H979.813z"/>
		<path style="fill:#FFFFFF;" d="M990.23,242.392l-0.896-7.071c8.763-1.525,16.631-2.291,23.602-2.291
			c5.907,0,10.258,1.195,13.045,3.586c2.79,2.39,4.185,6.539,4.185,12.449v33.86h-7.571l-1.095-7.668
			c-5.577,5.71-12.049,8.564-19.42,8.564c-4.515,0-8.116-1.195-10.806-3.586c-2.687-2.39-4.034-5.776-4.034-10.158v-5.078
			c0-3.849,1.195-6.839,3.586-8.963c2.39-2.124,5.776-3.186,10.158-3.186h19.52v-3.785c-0.067-2.987-0.763-5.044-2.091-6.176
			c-1.328-1.126-3.852-1.692-7.568-1.692C1007.193,241.197,1000.321,241.597,990.23,242.392z M997.002,266.294v2.588
			c0,2.39,0.563,4.118,1.692,5.18c1.129,1.062,2.923,1.592,5.38,1.592c5.774,0,11.253-2.255,16.431-6.772v-8.763h-17.726
			c-2.127,0.067-3.619,0.614-4.481,1.643C997.432,262.793,997.002,264.301,997.002,266.294z"/>
		<path style="fill:#FFFFFF;" d="M1065.956,263.804l-13.544-3.386c-4.051-1.062-6.905-2.639-8.564-4.73
			c-1.661-2.094-2.49-5.129-2.49-9.114c0-5.377,1.443-8.996,4.33-10.854c2.89-1.858,7.852-2.754,14.89-2.69
			c7.768,0.133,14.673,0.696,20.713,1.694l-0.796,6.969c-10.158-0.33-16.3-0.497-18.425-0.497c-4.714,0-7.783,0.284-9.211,0.847
			c-1.428,0.563-2.14,2.076-2.14,4.53c0,1.131,0.097,2.042,0.297,2.739c0.2,0.699,0.714,1.28,1.543,1.743
			c0.829,0.466,1.477,0.781,1.943,0.947c0.463,0.166,1.495,0.481,3.087,0.944l13.744,3.386c4.115,1.065,7.038,2.575,8.766,4.533
			c1.725,1.958,2.587,4.996,2.587,9.111c0,5.712-1.577,9.48-4.73,11.305c-3.153,1.825-8.615,2.738-16.382,2.738
			c-6.772,0-13.214-0.466-19.321-1.395l0.696-7.169c3.719,0.333,9.262,0.497,16.633,0.497c5.441,0,9.093-0.381,10.954-1.144
			c1.858-0.763,2.79-2.375,2.79-4.832c0-1.06-0.136-1.94-0.399-2.639c-0.266-0.696-0.832-1.277-1.694-1.743
			c-0.863-0.463-1.543-0.778-2.04-0.944C1068.694,264.485,1067.614,264.203,1065.956,263.804z"/>
		<path style="fill:#FFFFFF;" d="M1122.742,275.057l1.095,7.468c-3.056,0.862-6.872,1.295-11.453,1.295
			c-4.118,0-7.256-1.177-9.411-3.534c-2.16-2.357-3.238-5.728-3.238-10.109v-28.383h-8.863v-6.969l8.863-0.399v-14.34h9.562v14.24
			h15.036v7.468h-15.036v27.088c0,2.26,0.479,3.852,1.443,4.781c0.96,0.932,2.605,1.395,4.929,1.395H1122.742z"/>
		<path style="fill:#FFFFFF;" d="M1137.548,238.907c3.516-3.916,9.493-5.876,17.926-5.876c8.431,0,14.407,1.96,17.926,5.876
			c3.519,3.918,5.277,10.524,5.277,19.817c0,9.298-1.758,15.871-5.277,19.72c-3.519,3.852-9.495,5.776-17.926,5.776
			c-8.433,0-14.409-1.925-17.926-5.776c-3.522-3.849-5.28-10.422-5.28-19.72C1132.268,249.431,1134.027,242.825,1137.548,238.907z
			 M1165.832,244.883c-1.861-2.457-5.313-3.685-10.358-3.685c-5.047,0-8.5,1.229-10.358,3.685s-2.787,7.069-2.787,13.841
			c0,6.708,0.929,11.289,2.787,13.744c1.858,2.457,5.311,3.685,10.358,3.685c5.045,0,8.497-1.229,10.358-3.685
			c1.858-2.454,2.787-7.036,2.787-13.744C1168.619,251.952,1167.69,247.34,1165.832,244.883z"/>
	</g>
</g>
</svg>
