<?xml version="1.0" encoding="iso-8859-1"?>
<!-- Generator: Adobe Illustrator 25.2.1, SVG Export Plug-In . SVG Version: 6.00 Build 0)  -->
<svg version="1.1" id="Layer_1" xmlns="http://www.w3.org/2000/svg" xmlns:xlink="http://www.w3.org/1999/xlink" x="0px" y="0px"
	 viewBox="0 0 1600 500" style="enable-background:new 0 0 1600 500;" xml:space="preserve">
<g>
	<g>
		<path style="fill:#FFFFFF;" d="M607.175,176.18h-22.756c-2.073,0-3.541,0.429-4.399,1.287c-0.86,0.86-1.289,2.328-1.289,4.402
			v13.243h25.067v7.2h-25.067v27.735h-8.888v-50.045c0-3.615,1.111-6.431,3.332-8.446c2.224-2.014,5.229-3.023,9.023-3.023
			c11.734,0,20.208,0.268,25.422,0.802L607.175,176.18z"/>
		<path style="fill:#FFFFFF;" d="M620.83,168.179h4.09c1.657,0,2.487,0.83,2.487,2.489v4.979c0,1.718-0.83,2.576-2.487,2.576h-4.09
			c-1.66,0-2.489-0.858-2.489-2.576v-4.979C618.341,169.009,619.17,168.179,620.83,168.179z M627.141,230.047h-8.533v-43.378h8.533
			V230.047z"/>
		<path style="fill:#FFFFFF;" d="M648.128,186.669l0.534,6.666c6.814-5.214,13.213-7.823,19.2-7.823
			c3.853,0,6.768,1.024,8.755,3.066c1.986,2.045,2.98,5.022,2.98,8.934v32.535h-8.622v-30.046c0-2.724-0.401-4.606-1.2-5.645
			c-0.802-1.034-2.239-1.555-4.312-1.555c-2.252,0-4.504,0.506-6.756,1.511c-2.252,1.009-5.334,2.666-9.245,4.979v30.756h-8.622
			v-43.378H648.128z"/>
		<path style="fill:#FFFFFF;" d="M700.244,186.669l0.534,6.666c6.814-5.214,13.215-7.823,19.2-7.823
			c3.855,0,6.771,1.024,8.757,3.066c1.986,2.045,2.977,5.022,2.977,8.934v32.535h-8.62v-30.046c0-2.724-0.403-4.606-1.2-5.645
			c-0.802-1.034-2.242-1.555-4.315-1.555c-2.252,0-4.504,0.506-6.756,1.511c-2.252,1.009-5.331,2.666-9.242,4.979v30.756h-8.625
			v-43.378H700.244z"/>
		<path style="fill:#FFFFFF;" d="M747.393,168.179h4.088c1.66,0,2.489,0.83,2.489,2.489v4.979c0,1.718-0.83,2.576-2.489,2.576
			h-4.088c-1.66,0-2.489-0.858-2.489-2.576v-4.979C744.904,169.009,745.734,168.179,747.393,168.179z M753.705,230.047h-8.535
			v-43.378h8.535V230.047z"/>
		<path style="fill:#FFFFFF;" d="M786.853,212.979l-12.089-3.02c-3.615-0.947-6.166-2.357-7.644-4.223
			c-1.483-1.866-2.224-4.578-2.224-8.134c0-4.8,1.289-8.03,3.868-9.689c2.576-1.657,7.006-2.459,13.289-2.4
			c6.932,0.12,13.095,0.623,18.488,1.511l-0.71,6.222c-9.066-0.296-14.551-0.444-16.445-0.444c-4.208,0-6.95,0.253-8.224,0.756
			c-1.274,0.506-1.91,1.854-1.91,4.044c0,1.009,0.089,1.823,0.266,2.446c0.179,0.62,0.636,1.141,1.379,1.555
			c0.74,0.416,1.317,0.697,1.734,0.845c0.414,0.148,1.333,0.429,2.755,0.843l12.268,3.023c3.674,0.95,6.281,2.298,7.823,4.044
			c1.54,1.749,2.311,4.46,2.311,8.134c0,5.096-1.409,8.459-4.223,10.09c-2.816,1.629-7.69,2.443-14.622,2.443
			c-6.046,0-11.793-0.416-17.244-1.243l0.62-6.401c3.319,0.296,8.267,0.444,14.844,0.444c4.859,0,8.119-0.34,9.779-1.024
			c1.66-0.679,2.489-2.117,2.489-4.31c0-0.947-0.12-1.734-0.355-2.357c-0.237-0.62-0.743-1.139-1.511-1.555
			c-0.771-0.414-1.379-0.697-1.823-0.845C789.296,213.59,788.334,213.337,786.853,212.979z"/>
		<path style="fill:#FFFFFF;" d="M821.428,167.824v16.8c0,2.964-0.207,5.778-0.623,8.446c6.876-5.037,13.187-7.557,18.934-7.557
			c3.791,0,6.697,1.024,8.711,3.066c2.014,2.045,3.023,5.022,3.023,8.934v32.535h-8.622v-30.046c0-2.724-0.401-4.606-1.2-5.645
			c-0.802-1.034-2.239-1.555-4.312-1.555c-2.252,0-4.547,0.506-6.888,1.511c-2.341,1.009-5.377,2.637-9.112,4.889v30.845h-8.622
			v-62.223H821.428z"/>
		<path style="fill:#FFFFFF;" d="M930.676,176.625h-19.468v53.423h-8.977v-53.423h-19.289v-7.912h47.734V176.625z"/>
		<path style="fill:#FFFFFF;" d="M960.063,185.512l-0.978,8.088h-2.668c-3.378,0-8.563,1.662-15.556,4.979v31.468h-8.622v-43.378
			h6.666l0.891,6.577c6.457-5.155,12.534-7.734,18.222-7.734H960.063z"/>
		<path style="fill:#FFFFFF;" d="M970.202,193.869l-0.799-6.311c7.823-1.363,14.844-2.045,21.069-2.045
			c5.272,0,9.156,1.067,11.642,3.202c2.489,2.132,3.735,5.837,3.735,11.111v30.222h-6.756l-0.978-6.845
			c-4.979,5.099-10.757,7.644-17.334,7.644c-4.031,0-7.246-1.065-9.646-3.199c-2.4-2.134-3.6-5.155-3.6-9.066v-4.534
			c0-3.437,1.067-6.102,3.199-7.999c2.134-1.897,5.157-2.844,9.069-2.844h17.423v-3.378c-0.061-2.668-0.684-4.504-1.869-5.512
			c-1.185-1.006-3.437-1.511-6.756-1.511C985.344,192.802,979.209,193.156,970.202,193.869z M976.247,215.203v2.311
			c0,2.134,0.503,3.674,1.511,4.621c1.006,0.95,2.607,1.422,4.8,1.422c5.155,0,10.044-2.012,14.668-6.043v-7.823h-15.825
			c-1.897,0.061-3.23,0.549-3.998,1.468C976.633,212.078,976.247,213.424,976.247,215.203z"/>
		<path style="fill:#FFFFFF;" d="M1026.428,186.669l0.534,6.666c6.814-5.214,13.215-7.823,19.2-7.823
			c3.853,0,6.771,1.024,8.757,3.066c1.984,2.045,2.977,5.022,2.977,8.934v32.535h-8.622v-30.046c0-2.724-0.401-4.606-1.2-5.645
			c-0.802-1.034-2.239-1.555-4.312-1.555c-2.252,0-4.504,0.506-6.756,1.511c-2.252,1.009-5.334,2.666-9.245,4.979v30.756h-8.622
			v-43.378H1026.428z"/>
		<path style="fill:#FFFFFF;" d="M1090.74,212.979l-12.089-3.02c-3.615-0.947-6.166-2.357-7.644-4.223
			c-1.483-1.866-2.224-4.578-2.224-8.134c0-4.8,1.289-8.03,3.868-9.689c2.576-1.657,7.006-2.459,13.289-2.4
			c6.932,0.12,13.095,0.623,18.488,1.511l-0.71,6.222c-9.066-0.296-14.551-0.444-16.445-0.444c-4.208,0-6.95,0.253-8.224,0.756
			c-1.274,0.506-1.91,1.854-1.91,4.044c0,1.009,0.089,1.823,0.266,2.446c0.179,0.62,0.636,1.141,1.379,1.555
			c0.74,0.416,1.318,0.697,1.734,0.845c0.414,0.148,1.333,0.429,2.755,0.843l12.268,3.023c3.674,0.95,6.281,2.298,7.823,4.044
			c1.54,1.749,2.311,4.46,2.311,8.134c0,5.096-1.409,8.459-4.223,10.09c-2.816,1.629-7.69,2.443-14.622,2.443
			c-6.046,0-11.793-0.416-17.244-1.243l0.62-6.401c3.319,0.296,8.267,0.444,14.844,0.444c4.859,0,8.119-0.34,9.779-1.024
			c1.66-0.679,2.489-2.117,2.489-4.31c0-0.947-0.12-1.734-0.355-2.357c-0.237-0.62-0.743-1.139-1.511-1.555
			c-0.771-0.414-1.379-0.697-1.823-0.845C1093.183,213.59,1092.22,213.337,1090.74,212.979z"/>
		<path style="fill:#FFFFFF;" d="M1123.716,186.669l0.623,6.666c2.252-2.369,5.037-4.266,8.356-5.688
			c3.319-1.422,6.546-2.134,9.689-2.134c9.835,0,14.755,7.705,14.755,23.111c0,8.178-1.333,13.971-3.998,17.379
			c-2.668,3.408-6.845,5.111-12.534,5.111c-5.808,0-11.025-1.453-15.646-4.356c0.235,2.489,0.296,5.423,0.179,8.801v12.176h-8.535
			v-61.067H1123.716z M1125.141,199.292v22.044c5.985,1.542,10.369,2.311,13.154,2.311c3.735,0,6.327-1.021,7.78-3.066
			c1.45-2.045,2.178-6.059,2.178-12.043c0-5.75-0.666-9.779-2.002-12.089c-1.333-2.313-3.6-3.467-6.799-3.467
			C1135.719,192.98,1130.947,195.084,1125.141,199.292z"/>
		<path style="fill:#FFFFFF;" d="M1172.092,190.757c3.14-3.495,8.474-5.244,16.001-5.244c7.524,0,12.858,1.749,15.998,5.244
			c3.14,3.498,4.713,9.393,4.713,17.691s-1.573,14.162-4.713,17.599c-3.14,3.439-8.474,5.157-15.998,5.157
			c-7.527,0-12.86-1.718-16.001-5.157c-3.143-3.437-4.713-9.301-4.713-17.599S1168.948,194.254,1172.092,190.757z M1197.335,196.09
			c-1.66-2.191-4.741-3.288-9.242-3.288c-4.506,0-7.588,1.098-9.245,3.288c-1.66,2.193-2.489,6.311-2.489,12.357
			c0,5.985,0.83,10.075,2.489,12.265c1.657,2.193,4.739,3.291,9.245,3.291c4.501,0,7.583-1.098,9.242-3.291
			c1.66-2.191,2.489-6.281,2.489-12.265C1199.824,202.402,1198.994,198.283,1197.335,196.09z"/>
		<path style="fill:#FFFFFF;" d="M1248.432,185.512l-0.978,8.088h-2.668c-3.378,0-8.563,1.662-15.557,4.979v31.468h-8.622v-43.378
			h6.666l0.891,6.577c6.457-5.155,12.533-7.734,18.222-7.734H1248.432z"/>
		<path style="fill:#FFFFFF;" d="M1284.334,223.026l0.975,6.666c-2.724,0.769-6.133,1.154-10.22,1.154
			c-3.677,0-6.475-1.049-8.4-3.156c-1.928-2.101-2.89-5.111-2.89-9.02v-25.335h-7.912v-6.222l7.912-0.355v-12.802h8.533v12.712
			h13.425v6.666h-13.425v24.179c0,2.014,0.429,3.437,1.289,4.266c0.858,0.83,2.326,1.246,4.402,1.246H1284.334z"/>
		<path style="fill:#FFFFFF;" d="M578.909,332.698h-8.89v-61.335h8.89V332.698z"/>
		<path style="fill:#FFFFFF;" d="M600.535,289.319l0.534,6.666c6.814-5.214,13.215-7.823,19.202-7.823
			c3.85,0,6.768,1.024,8.755,3.066c1.984,2.045,2.977,5.022,2.977,8.934v32.535h-8.622v-30.046c0-2.724-0.401-4.606-1.2-5.645
			c-0.799-1.034-2.237-1.555-4.312-1.555c-2.252,0-4.504,0.506-6.756,1.511c-2.252,1.009-5.331,2.666-9.242,4.979v30.756h-8.625
			v-43.378H600.535z"/>
		<path style="fill:#FFFFFF;" d="M674.385,275.984h-8.801c-2.666,0-4.547,0.506-5.645,1.511c-1.095,1.009-1.644,2.757-1.644,5.244
			v6.58h13.422v6.666h-13.422v36.712h-8.622v-36.712h-7.823v-6.222l7.823-0.444v-7.557c0-4.205,1.006-7.391,3.023-9.554
			c2.014-2.163,5.303-3.245,9.865-3.245c5.571,0,9.748,0.209,12.534,0.623L674.385,275.984z"/>
		<path style="fill:#FFFFFF;" d="M709.4,288.163l-0.978,8.088h-2.668c-3.378,0-8.563,1.662-15.554,4.979v31.468h-8.625v-43.378
			h6.669l0.889,6.577c6.457-5.155,12.534-7.734,18.222-7.734H709.4z"/>
		<path style="fill:#FFFFFF;" d="M719.541,296.519l-0.799-6.311c7.823-1.363,14.844-2.045,21.069-2.045
			c5.272,0,9.156,1.067,11.643,3.202c2.489,2.132,3.735,5.837,3.735,11.111v30.222h-6.756l-0.978-6.845
			c-4.979,5.099-10.757,7.644-17.333,7.644c-4.031,0-7.246-1.065-9.646-3.199s-3.6-5.155-3.6-9.066v-4.534
			c0-3.437,1.067-6.102,3.199-7.999c2.134-1.897,5.157-2.844,9.069-2.844h17.423v-3.378c-0.061-2.668-0.684-4.504-1.869-5.512
			c-1.185-1.006-3.437-1.511-6.756-1.511C734.684,295.452,728.548,295.807,719.541,296.519z M725.587,317.854v2.311
			c0,2.134,0.503,3.674,1.511,4.621c1.006,0.95,2.607,1.422,4.8,1.422c5.155,0,10.044-2.012,14.668-6.043v-7.823h-15.825
			c-1.897,0.061-3.23,0.549-3.998,1.468C725.972,314.729,725.587,316.074,725.587,317.854z"/>
		<path style="fill:#FFFFFF;" d="M787.989,315.63l-12.089-3.02c-3.615-0.947-6.166-2.357-7.644-4.223
			c-1.483-1.866-2.224-4.578-2.224-8.134c0-4.8,1.289-8.03,3.868-9.689c2.576-1.657,7.006-2.459,13.289-2.4
			c6.932,0.12,13.095,0.623,18.488,1.512l-0.71,6.222c-9.066-0.296-14.551-0.444-16.445-0.444c-4.208,0-6.95,0.253-8.224,0.756
			c-1.274,0.506-1.91,1.854-1.91,4.044c0,1.009,0.089,1.823,0.266,2.446c0.179,0.62,0.636,1.141,1.379,1.555
			c0.74,0.416,1.317,0.697,1.734,0.845c0.414,0.148,1.333,0.429,2.755,0.843l12.268,3.023c3.674,0.95,6.281,2.298,7.823,4.044
			c1.54,1.749,2.311,4.46,2.311,8.134c0,5.096-1.409,8.459-4.223,10.09c-2.816,1.629-7.69,2.443-14.622,2.443
			c-6.046,0-11.793-0.416-17.244-1.243l0.62-6.401c3.319,0.296,8.267,0.444,14.844,0.444c4.859,0,8.119-0.34,9.779-1.024
			c1.66-0.679,2.489-2.117,2.489-4.31c0-0.947-0.12-1.734-0.355-2.357c-0.237-0.62-0.743-1.139-1.511-1.555
			c-0.771-0.414-1.379-0.697-1.823-0.845C790.432,316.24,789.47,315.987,787.989,315.63z"/>
		<path style="fill:#FFFFFF;" d="M839.51,325.677l0.975,6.666c-2.724,0.768-6.133,1.154-10.22,1.154c-3.677,0-6.475-1.049-8.4-3.156
			c-1.928-2.101-2.89-5.111-2.89-9.02v-25.335h-7.912v-6.222l7.912-0.355v-12.802h8.533v12.712h13.425v6.666h-13.425v24.179
			c0,2.014,0.429,3.437,1.289,4.266c0.858,0.83,2.326,1.246,4.402,1.246H839.51z"/>
		<path style="fill:#FFFFFF;" d="M878.869,288.163l-0.978,8.088h-2.668c-3.378,0-8.563,1.662-15.557,4.979v31.468h-8.622v-43.378
			h6.666l0.891,6.577c6.457-5.155,12.534-7.734,18.222-7.734H878.869z"/>
		<path style="fill:#FFFFFF;" d="M926.07,289.319v43.378h-6.845l-0.623-5.957c-6.342,4.744-12.505,7.113-18.49,7.113
			c-7.882,0-11.821-4.001-11.821-12.003v-32.533h8.622v30.046c-0.059,2.666,0.386,4.519,1.333,5.556s2.579,1.555,4.889,1.555
			c3.378,0,8.178-1.925,14.4-5.778v-31.379H926.07z"/>
		<path style="fill:#FFFFFF;" d="M972.895,325.587l0.799,5.778c-4.386,1.598-9.421,2.4-15.11,2.4
			c-7.588,0-12.934-1.703-16.047-5.111c-3.11-3.408-4.667-9.288-4.667-17.645c0-8.357,1.557-14.252,4.667-17.688
			c3.112-3.437,8.459-5.157,16.047-5.157c5.806,0,10.606,0.743,14.4,2.224l-1.157,5.51c-4.445-0.296-8.357-0.444-11.734-0.444
			c-4.976,0-8.431,1.098-10.356,3.288c-1.925,2.193-2.888,6.283-2.888,12.268c0,5.987,0.963,10.075,2.888,12.268
			c1.925,2.191,5.38,3.288,10.356,3.288C964.952,326.565,969.221,326.238,972.895,325.587z"/>
		<path style="fill:#FFFFFF;" d="M1010.143,325.677l0.975,6.666c-2.724,0.768-6.133,1.154-10.22,1.154
			c-3.677,0-6.475-1.049-8.4-3.156c-1.928-2.101-2.89-5.111-2.89-9.02v-25.335h-7.912v-6.222l7.912-0.355v-12.802h8.533v12.712
			h13.425v6.666h-13.425v24.179c0,2.014,0.429,3.437,1.289,4.266c0.858,0.83,2.326,1.246,4.402,1.246H1010.143z"/>
		<path style="fill:#FFFFFF;" d="M1059.333,289.319v43.378h-6.845l-0.623-5.957c-6.342,4.744-12.505,7.113-18.49,7.113
			c-7.882,0-11.821-4.001-11.821-12.003v-32.533h8.622v30.046c-0.059,2.666,0.386,4.519,1.333,5.556
			c0.947,1.037,2.579,1.555,4.889,1.555c3.378,0,8.178-1.925,14.4-5.778v-31.379H1059.333z"/>
		<path style="fill:#FFFFFF;" d="M1100.613,288.163l-0.978,8.088h-2.668c-3.378,0-8.563,1.662-15.557,4.979v31.468h-8.622v-43.378
			h6.666l0.891,6.577c6.457-5.155,12.534-7.734,18.222-7.734H1100.613z"/>
		<path style="fill:#FFFFFF;" d="M1136.24,315.186h-19.465c0.414,4.504,1.583,7.527,3.511,9.066
			c1.925,1.542,5.081,2.313,9.467,2.313c3.85,0,8.918-0.357,15.199-1.067l0.802,5.689c-3.911,1.718-9.631,2.579-17.157,2.579
			c-7.585,0-12.965-1.718-16.134-5.157c-3.171-3.434-4.757-9.332-4.757-17.688c0-8.413,1.557-14.311,4.667-17.688
			c3.112-3.378,8.252-5.068,15.424-5.068c6.636,0,11.466,1.215,14.489,3.646c3.023,2.431,4.532,6.074,4.532,10.933
			C1146.818,311.039,1143.292,315.186,1136.24,315.186z M1116.685,308.519h17.244c2.844,0,4.266-1.925,4.266-5.778
			c-0.059-2.665-0.814-4.547-2.265-5.645c-1.455-1.095-4.016-1.644-7.69-1.644c-4.266,0-7.231,0.904-8.89,2.711
			C1117.691,299.971,1116.802,303.423,1116.685,308.519z"/>
		<path style="fill:#FFFFFF;" d="M1213.928,314.208h-24.444l-5.688,18.49h-9.069l19.202-58.935c0.472-1.601,1.568-2.4,3.288-2.4
			h9.066c1.777,0,2.844,0.799,3.199,2.4l19.289,58.935h-9.156L1213.928,314.208z M1211.617,306.474l-7.2-23.29
			c-0.179-0.531-0.431-1.361-0.756-2.487c-0.327-1.126-0.577-1.956-0.756-2.489h-2.4l-1.422,4.976l-7.2,23.29H1211.617z"/>
		<path style="fill:#FFFFFF;" d="M1280.596,293.941l-6.135,0.623c1.008,2.014,1.511,4.534,1.511,7.555
			c0,4.92-1.407,8.461-4.223,10.624c-2.814,2.163-7.688,3.245-14.622,3.245c-3.199,0-6.074-0.237-8.622-0.712
			c-0.95,1.243-1.2,2.609-0.756,4.09c0.444,1.481,1.614,2.369,3.511,2.666l16.001,2.489c4.09,0.592,7.008,1.866,8.757,3.822
			c1.746,1.956,2.622,4.8,2.622,8.533c0,5.157-1.511,8.711-4.534,10.667c-3.023,1.956-8.505,2.934-16.445,2.934
			c-7.999,0-13.542-0.963-16.624-2.888c-3.082-1.928-4.621-5.41-4.621-10.445c0-2.431,0.534-4.356,1.601-5.778
			c1.065-1.422,2.844-2.844,5.334-4.266c-2.076-1.718-3.01-4.016-2.801-6.891c0.207-2.872,1.348-5.05,3.421-6.534
			c-3.791-1.956-5.688-5.778-5.688-11.466c0-5.096,1.391-8.711,4.177-10.843c2.786-2.134,7.706-3.202,14.757-3.202
			c4.325,0,7.762,0.386,10.312,1.157h13.511L1280.596,293.941z M1262.816,330.831l-13.956-1.866
			c-2.727,2.252-4.088,4.739-4.088,7.465c0,2.844,0.812,4.683,2.443,5.512c1.629,0.83,5.081,1.243,10.356,1.243
			c5.096,0,8.474-0.429,10.134-1.289c1.66-0.858,2.489-2.681,2.489-5.466c0-2.014-0.444-3.332-1.333-3.955
			C1267.974,331.853,1265.957,331.306,1262.816,330.831z M1257.128,309.497c4.029,0,6.845-0.546,8.446-1.644
			c1.598-1.095,2.4-3.008,2.4-5.734c0-2.783-0.786-4.711-2.357-5.778c-1.57-1.067-4.399-1.598-8.489-1.598
			c-4.149,0-7.021,0.531-8.622,1.598c-1.601,1.067-2.4,2.995-2.4,5.778c0,2.668,0.814,4.565,2.443,5.691
			C1250.18,308.935,1253.04,309.497,1257.128,309.497z"/>
		<path style="fill:#FFFFFF;" d="M1316.647,315.186h-19.465c0.414,4.504,1.583,7.527,3.511,9.066
			c1.925,1.542,5.081,2.313,9.467,2.313c3.85,0,8.918-0.357,15.199-1.067l0.802,5.689c-3.911,1.718-9.63,2.579-17.157,2.579
			c-7.585,0-12.965-1.718-16.134-5.157c-3.171-3.434-4.756-9.332-4.756-17.688c0-8.413,1.557-14.311,4.667-17.688
			c3.112-3.378,8.252-5.068,15.424-5.068c6.636,0,11.466,1.215,14.489,3.646c3.023,2.431,4.532,6.074,4.532,10.933
			C1327.225,311.039,1323.699,315.186,1316.647,315.186z M1297.093,308.519h17.244c2.844,0,4.266-1.925,4.266-5.778
			c-0.059-2.665-0.814-4.547-2.265-5.645c-1.455-1.095-4.016-1.644-7.69-1.644c-4.266,0-7.231,0.904-8.89,2.711
			C1298.099,299.971,1297.21,303.423,1297.093,308.519z"/>
		<path style="fill:#FFFFFF;" d="M1345.733,289.319l0.534,6.666c6.814-5.214,13.215-7.823,19.2-7.823
			c3.853,0,6.771,1.024,8.757,3.066c1.984,2.045,2.977,5.022,2.977,8.934v32.535h-8.622v-30.046c0-2.724-0.401-4.606-1.2-5.645
			c-0.802-1.034-2.239-1.555-4.312-1.555c-2.252,0-4.504,0.506-6.756,1.511c-2.252,1.009-5.334,2.666-9.245,4.979v30.756h-8.622
			v-43.378H1345.733z"/>
		<path style="fill:#FFFFFF;" d="M1423.832,325.587l0.799,5.778c-4.386,1.598-9.421,2.4-15.11,2.4
			c-7.588,0-12.934-1.703-16.047-5.111c-3.11-3.408-4.667-9.288-4.667-17.645c0-8.357,1.557-14.252,4.667-17.688
			c3.112-3.437,8.459-5.157,16.047-5.157c5.806,0,10.606,0.743,14.4,2.224l-1.157,5.51c-4.445-0.296-8.357-0.444-11.734-0.444
			c-4.976,0-8.431,1.098-10.356,3.288c-1.925,2.193-2.888,6.283-2.888,12.268c0,5.987,0.963,10.075,2.888,12.268
			c1.925,2.191,5.38,3.288,10.356,3.288C1415.889,326.565,1420.158,326.238,1423.832,325.587z"/>
		<path style="fill:#FFFFFF;" d="M1476.589,289.319l-16.8,45.424c-4.031,10.667-10.667,16.057-19.912,16.177l-0.889-5.688
			c3.378-1.009,6.043-2.4,7.999-4.177c1.956-1.78,3.526-4.031,4.713-6.756l0.62-1.601h-1.777c-1.66,0-2.668-0.74-3.023-2.221
			l-15.378-41.157h9.245l10.756,31.555c0.71,1.838,1.213,3.618,1.511,5.334h1.243c0.592-1.598,1.185-3.378,1.777-5.334
			l10.667-31.555H1476.589z"/>
	</g>
	<g>
		<g>
			<path style="fill:#FFFFFF;" d="M137.337,112.5h73.209c5.235,0,6.686,1.79,7.96,4.781c0.703,1.653,44.058,105.339,44.058,105.339
				l-105.496-62.663L137.337,112.5z"/>
		</g>
		<g>
			<polygon style="fill:#FFFFFF;" points="159.434,165.541 264.759,227.88 279.776,264.113 216.363,301.83 			"/>
		</g>
		<g>
			<polygon style="fill:#FFFFFF;" points="217.869,304.929 281.262,267.326 290.87,290.552 252.43,388.232 			"/>
		</g>
		<g>
			<path style="fill:#FFFFFF;" d="M475.347,112.5h-73.209c-5.235,0-6.686,1.79-7.96,4.781
				c-0.704,1.653-44.058,105.339-44.058,105.339l105.496-62.663L475.347,112.5z"/>
		</g>
		<g>
			<polygon style="fill:#FFFFFF;" points="453.25,165.541 347.925,227.88 332.908,264.113 396.321,301.83 			"/>
		</g>
		<g>
			<polygon style="fill:#FFFFFF;" points="394.815,304.929 331.422,267.326 321.815,290.552 360.254,388.232 			"/>
		</g>
	</g>
</g>
</svg>
