<?xml version="1.0" encoding="iso-8859-1"?>
<!-- Generator: Adobe Illustrator 25.2.1, SVG Export Plug-In . SVG Version: 6.00 Build 0)  -->
<svg version="1.1" id="Layer_1" xmlns="http://www.w3.org/2000/svg" xmlns:xlink="http://www.w3.org/1999/xlink" x="0px" y="0px"
	 viewBox="0 0 1200 1000" style="enable-background:new 0 0 1200 1000;" xml:space="preserve">
<g>
	<g>
		<g>
			<path style="fill:#FFFFFF;" d="M357.234,188.096H463.83c7.623,0,9.735,2.606,11.59,6.961c1.024,2.407,64.15,153.38,64.15,153.38
				l-153.607-91.24L357.234,188.096z"/>
		</g>
		<g>
			<polygon style="fill:#FFFFFF;" points="389.409,265.327 542.767,356.095 564.633,408.853 472.3,463.77 			"/>
		</g>
		<g>
			<polygon style="fill:#FFFFFF;" points="474.494,468.283 566.796,413.531 580.786,447.35 524.815,589.577 			"/>
		</g>
		<g>
			<path style="fill:#FFFFFF;" d="M849.394,188.096H742.798c-7.622,0-9.735,2.606-11.59,6.961
				c-1.025,2.407-64.15,153.38-64.15,153.38l153.607-91.24L849.394,188.096z"/>
		</g>
		<g>
			<polygon style="fill:#FFFFFF;" points="817.22,265.327 663.862,356.095 641.996,408.853 734.328,463.77 			"/>
		</g>
		<g>
			<polygon style="fill:#FFFFFF;" points="732.135,468.283 639.832,413.531 625.843,447.35 681.814,589.577 			"/>
		</g>
	</g>
	<g>
		<path style="fill:#FFFFFF;" d="M181.416,702.973H153.07v77.786h-13.071v-77.786h-28.086v-11.521h69.504V702.973z"/>
		<path style="fill:#FFFFFF;" d="M224.205,715.913l-1.424,11.777H218.9c-4.918,0-12.469,2.42-22.651,7.249v45.819h-12.554v-63.161
			h9.707l1.294,9.576c9.405-7.506,18.25-11.26,26.536-11.26H224.205z"/>
		<path style="fill:#FFFFFF;" d="M238.972,728.081l-1.164-9.19c11.391-1.985,21.614-2.978,30.674-2.978
			c7.68,0,13.331,1.554,16.956,4.662c3.625,3.104,5.435,8.498,5.435,16.179v44.005h-9.837l-1.424-9.967
			c-7.246,7.424-15.658,11.13-25.239,11.13c-5.866,0-10.547-1.55-14.041-4.658c-3.495-3.108-5.242-7.506-5.242-13.201v-6.602
			c0-5.004,1.554-8.885,4.658-11.647c3.108-2.762,7.506-4.141,13.201-4.141h25.369v-4.918c-0.086-3.885-0.993-6.558-2.718-8.026
			c-1.725-1.465-5.004-2.201-9.837-2.201C261.017,726.527,252.087,727.044,238.972,728.081z M247.775,759.145v3.364
			c0,3.108,0.732,5.35,2.201,6.729c1.465,1.383,3.796,2.071,6.989,2.071c7.506,0,14.625-2.929,21.354-8.799v-11.391H255.28
			c-2.762,0.089-4.703,0.799-5.825,2.138C248.332,754.595,247.775,756.554,247.775,759.145z"/>
		<path style="fill:#FFFFFF;" d="M352.261,698.181H339.45c-3.885,0-6.625,0.736-8.22,2.201c-1.599,1.468-2.394,4.015-2.394,7.636
			v9.58h19.543v9.707h-19.543v53.455h-12.554v-53.455h-11.391v-9.06l11.391-0.647v-11.004c0-6.123,1.465-10.762,4.398-13.911
			c2.933-3.149,7.721-4.725,14.368-4.725c8.108,0,14.194,0.305,18.246,0.907L352.261,698.181z"/>
		<path style="fill:#FFFFFF;" d="M368.83,690.675h5.952c2.416,0,3.625,1.208,3.625,3.625v7.249c0,2.502-1.208,3.751-3.625,3.751
			h-5.952c-2.416,0-3.625-1.249-3.625-3.751V694.3C365.205,691.883,366.413,690.675,368.83,690.675z M378.02,780.759h-12.428
			v-63.161h12.428V780.759z"/>
		<path style="fill:#FFFFFF;" d="M417.764,749.695h-7.896c0.431,3.71,0.647,6.989,0.647,9.837v21.227h-12.554v-90.601h12.684v39.733
			c0,3.714-0.257,7.294-0.777,10.744h7.766l19.026-23.038h14.499l-19.026,22.908c-1.123,1.554-2.677,3.108-4.662,4.662v0.256
			c1.639,1.294,3.193,3.108,4.662,5.439l21.097,29.897h-14.499L417.764,749.695z"/>
		<path style="fill:#FFFFFF;" d="M478.754,690.158v72.351c-0.085,2.677,0.561,4.68,1.941,6.019s3.45,2.008,6.216,2.008h5.822
			l1.424,9.707c-2.502,1.119-6.513,1.68-12.037,1.68c-4.918,0-8.799-1.442-11.647-4.335c-2.848-2.889-4.271-6.967-4.271-12.231
			v-75.199H478.754z"/>
		<path style="fill:#FFFFFF;" d="M545.6,755.26h-28.343c0.602,6.558,2.305,10.959,5.112,13.201
			c2.803,2.245,7.398,3.368,13.785,3.368c5.606,0,12.985-0.52,22.131-1.554l1.167,8.283c-5.695,2.502-14.023,3.755-24.982,3.755
			c-11.045,0-18.878-2.502-23.491-7.509c-4.617-5-6.926-13.588-6.926-25.755c0-12.249,2.268-20.837,6.796-25.755
			c4.532-4.918,12.015-7.379,22.458-7.379c9.662,0,16.696,1.77,21.097,5.309s6.599,8.844,6.599,15.919
			C561.002,749.223,555.868,755.26,545.6,755.26z M517.127,745.554h25.108c4.141,0,6.212-2.803,6.212-8.413
			c-0.086-3.881-1.186-6.621-3.297-8.22c-2.119-1.595-5.848-2.394-11.197-2.394c-6.212,0-10.528,1.316-12.945,3.948
			C518.592,733.107,517.298,738.133,517.127,745.554z"/>
		<path style="fill:#FFFFFF;" d="M623.494,780.759l-1.037-8.673c-8.112,6.818-16.394,10.227-24.848,10.227
			c-7.766,0-13.398-2.784-16.893-8.35c-3.495-5.565-5.242-13.915-5.242-25.045c0-12.078,1.941-20.599,5.825-25.562
			c3.881-4.959,9.967-7.443,18.25-7.443c7.937,0,15.186,1.9,21.744,5.695c-0.346-3.71-0.517-7.852-0.517-12.424v-19.026h12.554
			v90.601H623.494z M620.776,763.543v-33.651c-7.855-2.071-13.893-3.104-18.119-3.104c-5.353,0-9.063,1.487-11.134,4.465
			s-3.104,8.822-3.104,17.536c0,8.718,1.011,14.673,3.041,17.863c2.026,3.193,5.502,4.788,10.42,4.788
			c3.19,0,6.019-0.558,8.476-1.68C612.817,768.636,616.289,766.565,620.776,763.543z"/>
		<path style="fill:#FFFFFF;" d="M681.272,755.907l-17.603-4.398c-5.264-1.379-8.978-3.431-11.13-6.149
			c-2.16-2.718-3.238-6.666-3.238-11.844c0-6.989,1.877-11.692,5.632-14.108c3.751-2.413,10.201-3.58,19.35-3.495
			c10.093,0.175,19.067,0.907,26.919,2.201l-1.034,9.06c-13.201-0.431-21.186-0.647-23.945-0.647c-6.127,0-10.119,0.368-11.974,1.1
			c-1.855,0.736-2.781,2.699-2.781,5.889c0,1.468,0.13,2.654,0.387,3.561c0.26,0.903,0.926,1.662,2.008,2.264
			c1.078,0.606,1.918,1.015,2.524,1.231c0.602,0.216,1.941,0.625,4.011,1.227l17.863,4.402c5.35,1.383,9.145,3.346,11.391,5.889
			c2.242,2.547,3.364,6.495,3.364,11.844c0,7.42-2.052,12.316-6.149,14.692c-4.1,2.372-11.197,3.558-21.29,3.558
			c-8.803,0-17.171-0.606-25.108-1.81l0.903-9.32c4.833,0.431,12.037,0.647,21.614,0.647c7.075,0,11.822-0.494,14.238-1.491
			c2.416-0.989,3.625-3.082,3.625-6.275c0-1.379-0.175-2.524-0.517-3.431c-0.346-0.903-1.082-1.658-2.201-2.264
			c-1.123-0.602-2.008-1.015-2.654-1.231C684.83,756.796,683.429,756.427,681.272,755.907z"/>
		<path style="fill:#FFFFFF;" d="M779.286,717.598l-22.521,60.054c-0.866,2.071-2.331,3.108-4.402,3.108h-11.26
			c-2.156,0-3.58-1.037-4.271-3.108l-22.521-60.054h13.331l14.755,43.488l3.495,10.874h1.684l3.751-10.874l14.629-43.488H779.286z"
			/>
		<path style="fill:#FFFFFF;" d="M830.086,755.26h-28.343c0.602,6.558,2.305,10.959,5.112,13.201
			c2.803,2.245,7.398,3.368,13.785,3.368c5.606,0,12.985-0.52,22.131-1.554l1.167,8.283c-5.695,2.502-14.023,3.755-24.982,3.755
			c-11.045,0-18.878-2.502-23.491-7.509c-4.617-5-6.926-13.588-6.926-25.755c0-12.249,2.268-20.837,6.796-25.755
			c4.532-4.918,12.015-7.379,22.458-7.379c9.662,0,16.696,1.77,21.097,5.309s6.599,8.844,6.599,15.919
			C845.488,749.223,840.354,755.26,830.086,755.26z M801.614,745.554h25.108c4.141,0,6.212-2.803,6.212-8.413
			c-0.086-3.881-1.186-6.621-3.297-8.22c-2.119-1.595-5.848-2.394-11.197-2.394c-6.212,0-10.528,1.316-12.945,3.948
			C803.078,733.107,801.785,738.133,801.614,745.554z"/>
		<path style="fill:#FFFFFF;" d="M902.334,715.913l-1.424,11.777h-3.885c-4.918,0-12.469,2.42-22.651,7.249v45.819H861.82v-63.161
			h9.707l1.297,9.576c9.402-7.506,18.25-11.26,26.532-11.26H902.334z"/>
		<path style="fill:#FFFFFF;" d="M936.115,749.695h-7.896c0.431,3.71,0.647,6.989,0.647,9.837v21.227h-12.554v-90.601h12.684v39.733
			c0,3.714-0.257,7.294-0.777,10.744h7.766l19.026-23.038h14.499l-19.026,22.908c-1.123,1.554-2.677,3.108-4.662,4.662v0.256
			c1.639,1.294,3.193,3.108,4.662,5.439l21.097,29.897h-14.499L936.115,749.695z"/>
		<path style="fill:#FFFFFF;" d="M1020.916,755.26h-28.343c0.602,6.558,2.305,10.959,5.112,13.201
			c2.803,2.245,7.398,3.368,13.785,3.368c5.606,0,12.985-0.52,22.131-1.554l1.167,8.283c-5.695,2.502-14.023,3.755-24.982,3.755
			c-11.045,0-18.878-2.502-23.491-7.509c-4.617-5-6.926-13.588-6.926-25.755c0-12.249,2.268-20.837,6.796-25.755
			c4.532-4.918,12.015-7.379,22.458-7.379c9.662,0,16.696,1.77,21.097,5.309c4.402,3.539,6.599,8.844,6.599,15.919
			C1036.318,749.223,1031.184,755.26,1020.916,755.26z M992.444,745.554h25.108c4.141,0,6.212-2.803,6.212-8.413
			c-0.086-3.881-1.186-6.621-3.297-8.22c-2.119-1.595-5.848-2.394-11.197-2.394c-6.212,0-10.528,1.316-12.945,3.948
			C993.908,733.107,992.615,738.133,992.444,745.554z"/>
		<path style="fill:#FFFFFF;" d="M1089.929,770.536l1.42,9.707c-3.967,1.119-8.93,1.68-14.881,1.68
			c-5.353,0-9.428-1.528-12.231-4.595c-2.807-3.06-4.208-7.443-4.208-13.134v-36.889h-11.521v-9.06l11.521-0.517v-18.64h12.424
			v18.51H1092v9.707h-19.547v35.205c0,2.933,0.625,5.004,1.877,6.212c1.249,1.208,3.387,1.814,6.409,1.814H1089.929z"/>
	</g>
</g>
</svg>
