<?xml version="1.0" encoding="iso-8859-1"?>
<!-- Generator: Adobe Illustrator 25.2.1, SVG Export Plug-In . SVG Version: 6.00 Build 0)  -->
<svg version="1.1" id="Layer_1" xmlns="http://www.w3.org/2000/svg" xmlns:xlink="http://www.w3.org/1999/xlink" x="0px" y="0px"
	 viewBox="0 0 1200 1000" style="enable-background:new 0 0 1200 1000;" xml:space="preserve">
<g>
	<g>
		<path style="fill:#FFFFFF;" d="M293.985,644.854h-21.562c-1.964,0-3.356,0.408-4.168,1.224c-0.813,0.813-1.221,2.204-1.221,4.168
			v12.547h23.749v6.823h-23.749v26.276h-8.422v-47.416c0-3.425,1.053-6.089,3.158-8.001c2.105-1.908,4.954-2.862,8.547-2.862
			c11.12,0,19.147,0.253,24.088,0.757L293.985,644.854z"/>
		<path style="fill:#FFFFFF;" d="M307.19,637.274h3.872c1.573,0,2.359,0.79,2.359,2.359v4.718c0,1.628-0.786,2.441-2.359,2.441
			h-3.872c-1.573,0-2.359-0.813-2.359-2.441v-4.718C304.832,638.064,305.618,637.274,307.19,637.274z M313.168,695.892h-8.083v-41.1
			h8.083V695.892z"/>
		<path style="fill:#FFFFFF;" d="M333.322,654.792l0.507,6.317c6.455-4.938,12.521-7.412,18.193-7.412
			c3.648,0,6.412,0.971,8.294,2.908c1.882,1.934,2.823,4.757,2.823,8.461v30.826h-8.169v-28.467c0-2.583-0.382-4.366-1.138-5.346
			c-0.757-0.984-2.119-1.474-4.086-1.474c-2.132,0-4.267,0.477-6.399,1.431c-2.135,0.954-5.053,2.527-8.761,4.714v29.141h-8.169
			v-41.1H333.322z"/>
		<path style="fill:#FFFFFF;" d="M382.979,654.792l0.507,6.317c6.455-4.938,12.518-7.412,18.19-7.412
			c3.648,0,6.415,0.971,8.297,2.908c1.878,1.934,2.819,4.757,2.819,8.461v30.826h-8.169v-28.467c0-2.583-0.378-4.366-1.135-5.346
			c-0.76-0.984-2.122-1.474-4.086-1.474c-2.135,0-4.267,0.477-6.402,1.431c-2.132,0.954-5.053,2.527-8.758,4.714v29.141h-8.169
			v-41.1H382.979z"/>
		<path style="fill:#FFFFFF;" d="M427.934,637.274h3.875c1.569,0,2.359,0.79,2.359,2.359v4.718c0,1.628-0.79,2.441-2.359,2.441
			h-3.875c-1.573,0-2.359-0.813-2.359-2.441v-4.718C425.575,638.064,426.362,637.274,427.934,637.274z M433.915,695.892h-8.086
			v-41.1h8.086V695.892z"/>
		<path style="fill:#FFFFFF;" d="M465.596,679.723l-11.452-2.865c-3.428-0.895-5.843-2.231-7.244-4
			c-1.405-1.767-2.105-4.336-2.105-7.705c0-4.547,1.221-7.606,3.665-9.179c2.441-1.573,6.639-2.329,12.59-2.277
			c6.57,0.115,12.406,0.592,17.518,1.434l-0.674,5.895c-8.59-0.283-13.784-0.421-15.581-0.421c-3.987,0-6.583,0.237-7.79,0.714
			c-1.207,0.477-1.813,1.757-1.813,3.833c0,0.954,0.086,1.727,0.253,2.316s0.602,1.082,1.306,1.474
			c0.701,0.395,1.25,0.661,1.642,0.799c0.391,0.141,1.263,0.408,2.612,0.799l11.623,2.865c3.481,0.898,5.948,2.175,7.409,3.833
			c1.461,1.655,2.191,4.224,2.191,7.705c0,4.829-1.336,8.014-4,9.56c-2.668,1.543-7.284,2.316-13.854,2.316
			c-5.728,0-11.176-0.395-16.341-1.181l0.592-6.063c3.142,0.283,7.83,0.421,14.064,0.421c4.602,0,7.692-0.322,9.264-0.967
			c1.569-0.645,2.359-2.007,2.359-4.086c0-0.898-0.115-1.642-0.339-2.231c-0.224-0.592-0.701-1.082-1.431-1.474
			c-0.73-0.395-1.306-0.661-1.727-0.803C467.912,680.299,467.001,680.058,465.596,679.723z"/>
		<path style="fill:#FFFFFF;" d="M498.636,636.938v15.916c0,2.81-0.197,5.474-0.589,8.001c6.511-4.77,12.492-7.159,17.94-7.159
			c3.592,0,6.343,0.971,8.251,2.908c1.908,1.934,2.865,4.757,2.865,8.461v30.826h-8.169v-28.467c0-2.583-0.382-4.366-1.138-5.346
			c-0.757-0.984-2.119-1.474-4.086-1.474c-2.132,0-4.31,0.477-6.527,1.431c-2.217,0.954-5.093,2.497-8.633,4.632v29.224h-8.169
			v-58.954H498.636z"/>
		<path style="fill:#FFFFFF;" d="M602.141,645.275h-18.446v50.617h-8.504v-50.617h-18.275v-7.494h45.225V645.275z"/>
		<path style="fill:#FFFFFF;" d="M630.365,653.697l-0.928,7.665h-2.527c-3.201,0-8.113,1.573-14.738,4.718v29.813h-8.169v-41.1
			h6.316l0.842,6.234c6.119-4.885,11.873-7.33,17.265-7.33H630.365z"/>
		<path style="fill:#FFFFFF;" d="M640.234,661.616l-0.76-5.981c7.412-1.29,14.064-1.938,19.959-1.938
			c4.997,0,8.675,1.013,11.034,3.033c2.359,2.02,3.537,5.53,3.537,10.527v28.635h-6.399l-0.928-6.484
			c-4.718,4.829-10.192,7.241-16.423,7.241c-3.82,0-6.863-1.01-9.139-3.03c-2.273-2.023-3.408-4.885-3.408-8.59v-4.297
			c0-3.257,1.01-5.784,3.03-7.58c2.023-1.796,4.885-2.694,8.59-2.694h16.508v-3.201c-0.056-2.527-0.645-4.267-1.77-5.221
			c-1.122-0.954-3.257-1.431-6.399-1.431C654.578,660.606,648.768,660.941,640.234,661.616z M645.959,681.828v2.188
			c0,2.023,0.477,3.484,1.434,4.382c0.954,0.898,2.467,1.346,4.547,1.346c4.885,0,9.518-1.908,13.896-5.728v-7.409h-14.992
			c-1.796,0.056-3.06,0.52-3.79,1.388C646.324,678.867,645.959,680.144,645.959,681.828z"/>
		<path style="fill:#FFFFFF;" d="M693.78,654.792l0.507,6.317c6.455-4.938,12.518-7.412,18.19-7.412
			c3.648,0,6.415,0.971,8.297,2.908c1.878,1.934,2.819,4.757,2.819,8.461v30.826h-8.169v-28.467c0-2.583-0.378-4.366-1.135-5.346
			c-0.76-0.984-2.122-1.474-4.086-1.474c-2.135,0-4.267,0.477-6.402,1.431c-2.132,0.954-5.053,2.527-8.758,4.714v29.141h-8.169
			v-41.1H693.78z"/>
		<path style="fill:#FFFFFF;" d="M754.99,679.723l-11.455-2.865c-3.425-0.895-5.839-2.231-7.241-4
			c-1.405-1.767-2.106-4.336-2.106-7.705c0-4.547,1.221-7.606,3.662-9.179c2.444-1.573,6.639-2.329,12.59-2.277
			c6.57,0.115,12.409,0.592,17.518,1.434l-0.674,5.895c-8.59-0.283-13.784-0.421-15.581-0.421c-3.987,0-6.583,0.237-7.79,0.714
			c-1.207,0.477-1.809,1.757-1.809,3.833c0,0.954,0.086,1.727,0.253,2.316s0.602,1.082,1.306,1.474
			c0.701,0.395,1.247,0.661,1.642,0.799c0.391,0.141,1.263,0.408,2.609,0.799l11.623,2.865c3.481,0.898,5.951,2.175,7.412,3.833
			c1.461,1.655,2.191,4.224,2.191,7.705c0,4.829-1.336,8.014-4,9.56c-2.668,1.543-7.287,2.316-13.857,2.316
			c-5.724,0-11.172-0.395-16.337-1.181l0.589-6.063c3.145,0.283,7.833,0.421,14.064,0.421c4.606,0,7.692-0.322,9.264-0.967
			c1.573-0.645,2.359-2.007,2.359-4.086c0-0.898-0.112-1.642-0.336-2.231c-0.227-0.592-0.704-1.082-1.431-1.474
			c-0.73-0.395-1.306-0.661-1.727-0.803C757.307,680.299,756.392,680.058,754.99,679.723z"/>
		<path style="fill:#FFFFFF;" d="M786.51,654.792l0.589,6.317c2.135-2.244,4.774-4.043,7.919-5.389
			c3.142-1.349,6.201-2.023,9.179-2.023c9.32,0,13.982,7.3,13.982,21.897c0,7.751-1.263,13.238-3.79,16.466
			c-2.527,3.231-6.488,4.843-11.876,4.843c-5.504,0-10.442-1.375-14.821-4.125c0.224,2.359,0.28,5.135,0.168,8.336v11.537h-8.086
			v-57.858H786.51z M787.859,666.751v20.887c5.668,1.461,9.823,2.191,12.462,2.191c3.54,0,5.994-0.97,7.369-2.905
			c1.375-1.938,2.066-5.741,2.066-11.412c0-5.445-0.632-9.264-1.895-11.455c-1.263-2.188-3.412-3.283-6.445-3.283
			C797.88,660.773,793.36,662.767,787.859,666.751z"/>
		<path style="fill:#FFFFFF;" d="M832.614,658.668c2.974-3.313,8.027-4.971,15.16-4.971c7.129,0,12.182,1.658,15.16,4.971
			c2.974,3.313,4.464,8.899,4.464,16.758c0,7.863-1.49,13.419-4.464,16.676c-2.977,3.257-8.03,4.885-15.16,4.885
			c-7.132,0-12.186-1.628-15.16-4.885c-2.977-3.257-4.464-8.813-4.464-16.676C828.15,667.567,829.637,661.981,832.614,658.668z
			 M856.531,663.721c-1.573-2.076-4.491-3.115-8.758-3.115c-4.267,0-7.188,1.04-8.758,3.115c-1.573,2.076-2.359,5.978-2.359,11.705
			c0,5.672,0.786,9.547,2.359,11.623c1.569,2.079,4.491,3.115,8.758,3.115c4.267,0,7.185-1.036,8.758-3.115
			c1.573-2.076,2.359-5.951,2.359-11.623C858.89,669.699,858.104,665.797,856.531,663.721z"/>
		<path style="fill:#FFFFFF;" d="M905.218,653.697l-0.928,7.665h-2.527c-3.201,0-8.113,1.573-14.738,4.718v29.813h-8.169v-41.1
			h6.317l0.842,6.234c6.119-4.885,11.876-7.33,17.265-7.33H905.218z"/>
		<path style="fill:#FFFFFF;" d="M939.462,689.24l0.928,6.317c-2.586,0.727-5.813,1.092-9.685,1.092
			c-3.484,0-6.136-0.994-7.961-2.987c-1.823-1.994-2.737-4.843-2.737-8.55v-24.003h-7.494v-5.895l7.494-0.336v-12.13h8.086v12.044
			h12.719v6.317h-12.719v22.907c0,1.911,0.408,3.257,1.221,4.043c0.813,0.786,2.204,1.181,4.168,1.181H939.462z"/>
		<path style="fill:#FFFFFF;" d="M176.801,787.735h-8.422v-58.112h8.422V787.735z"/>
		<path style="fill:#FFFFFF;" d="M197.56,746.635l0.507,6.316c6.455-4.938,12.518-7.412,18.19-7.412c3.648,0,6.415,0.97,8.297,2.908
			c1.879,1.934,2.819,4.757,2.819,8.461v30.826h-8.169v-28.467c0-2.583-0.378-4.366-1.135-5.346
			c-0.76-0.984-2.122-1.474-4.086-1.474c-2.135,0-4.267,0.477-6.402,1.431c-2.132,0.954-5.053,2.527-8.758,4.714v29.141h-8.169
			v-41.1H197.56z"/>
		<path style="fill:#FFFFFF;" d="M267.798,734.002h-8.336c-2.527,0-4.31,0.477-5.349,1.431c-1.04,0.957-1.559,2.612-1.559,4.971
			v6.231h12.719v6.316h-12.719v34.784h-8.169v-34.784h-7.412v-5.895l7.412-0.421v-7.159c0-3.984,0.954-7.004,2.865-9.054
			c1.908-2.05,5.024-3.073,9.346-3.073c5.277,0,9.235,0.197,11.876,0.589L267.798,734.002z"/>
		<path style="fill:#FFFFFF;" d="M301.233,745.539l-0.928,7.665h-2.527c-3.198,0-8.113,1.573-14.738,4.718v29.813h-8.169v-41.1
			h6.316l0.842,6.234c6.119-4.885,11.876-7.33,17.265-7.33H301.233z"/>
		<path style="fill:#FFFFFF;" d="M311.102,753.458l-0.757-5.981c7.412-1.29,14.064-1.938,19.959-1.938
			c4.997,0,8.675,1.013,11.034,3.033c2.355,2.02,3.537,5.53,3.537,10.528v28.635h-6.402l-0.924-6.484
			c-4.718,4.83-10.192,7.241-16.423,7.241c-3.819,0-6.866-1.01-9.139-3.03c-2.273-2.023-3.412-4.885-3.412-8.59v-4.297
			c0-3.257,1.01-5.784,3.033-7.58c2.02-1.796,4.885-2.694,8.59-2.694h16.508V759.1c-0.059-2.527-0.648-4.267-1.77-5.221
			c-1.125-0.954-3.257-1.431-6.402-1.431C325.449,752.448,319.636,752.784,311.102,753.458z M316.83,773.671v2.188
			c0,2.023,0.477,3.484,1.431,4.382s2.471,1.346,4.55,1.346c4.882,0,9.514-1.908,13.896-5.728v-7.409h-14.992
			c-1.8,0.056-3.063,0.52-3.79,1.388C317.195,770.71,316.83,771.986,316.83,773.671z"/>
		<path style="fill:#FFFFFF;" d="M376.231,771.565l-11.455-2.865c-3.425-0.895-5.839-2.231-7.241-4
			c-1.405-1.767-2.105-4.336-2.105-7.705c0-4.547,1.221-7.606,3.662-9.179c2.444-1.573,6.639-2.329,12.59-2.277
			c6.57,0.115,12.409,0.592,17.518,1.434l-0.674,5.895c-8.59-0.283-13.784-0.421-15.581-0.421c-3.987,0-6.583,0.237-7.79,0.714
			c-1.207,0.477-1.809,1.757-1.809,3.833c0,0.954,0.086,1.727,0.253,2.316c0.168,0.589,0.602,1.082,1.306,1.474
			c0.701,0.395,1.247,0.661,1.642,0.799c0.391,0.141,1.263,0.408,2.609,0.799l11.623,2.865c3.481,0.898,5.951,2.175,7.412,3.833
			c1.461,1.655,2.191,4.224,2.191,7.705c0,4.829-1.336,8.014-4,9.56c-2.668,1.543-7.287,2.316-13.857,2.316
			c-5.724,0-11.172-0.395-16.337-1.181l0.589-6.063c3.145,0.283,7.833,0.421,14.064,0.421c4.606,0,7.692-0.322,9.264-0.967
			c1.573-0.645,2.359-2.007,2.359-4.086c0-0.898-0.112-1.642-0.336-2.231c-0.227-0.592-0.704-1.082-1.431-1.474
			c-0.73-0.395-1.306-0.661-1.727-0.803C378.547,772.141,377.633,771.901,376.231,771.565z"/>
		<path style="fill:#FFFFFF;" d="M425.296,781.083l0.924,6.316c-2.583,0.727-5.81,1.092-9.685,1.092
			c-3.481,0-6.132-0.994-7.958-2.987s-2.737-4.843-2.737-8.55v-24.003h-7.494v-5.895l7.494-0.336v-12.13h8.086v12.044h12.715v6.316
			h-12.715v22.907c0,1.911,0.405,3.257,1.221,4.043c0.813,0.786,2.204,1.181,4.168,1.181H425.296z"/>
		<path style="fill:#FFFFFF;" d="M462.856,745.539l-0.928,7.665h-2.527c-3.198,0-8.113,1.573-14.738,4.718v29.813h-8.169v-41.1
			h6.316l0.842,6.234c6.119-4.885,11.876-7.33,17.265-7.33H462.856z"/>
		<path style="fill:#FFFFFF;" d="M507.838,746.635v41.1h-6.484l-0.589-5.642c-6.011,4.491-11.85,6.738-17.518,6.738
			c-7.468,0-11.202-3.79-11.202-11.37v-30.826h8.169v28.467c-0.056,2.527,0.365,4.283,1.263,5.264
			c0.898,0.984,2.444,1.474,4.632,1.474c3.201,0,7.748-1.823,13.643-5.474v-29.73H507.838z"/>
		<path style="fill:#FFFFFF;" d="M552.481,780.997l0.757,5.474c-4.155,1.517-8.925,2.273-14.317,2.273
			c-7.188,0-12.255-1.612-15.202-4.843c-2.948-3.227-4.422-8.8-4.422-16.716c0-7.919,1.474-13.505,4.422-16.762
			c2.948-3.254,8.014-4.885,15.202-4.885c5.504,0,10.05,0.704,13.643,2.105l-1.092,5.224c-4.211-0.283-7.919-0.421-11.12-0.421
			c-4.714,0-7.988,1.04-9.81,3.115c-1.826,2.076-2.737,5.951-2.737,11.623s0.911,9.544,2.737,11.62
			c1.823,2.079,5.096,3.119,9.81,3.119C544.957,781.925,548.997,781.616,552.481,780.997z"/>
		<path style="fill:#FFFFFF;" d="M588.005,781.083l0.928,6.316c-2.583,0.727-5.813,1.092-9.685,1.092
			c-3.484,0-6.136-0.994-7.958-2.987c-1.826-1.994-2.737-4.843-2.737-8.55v-24.003h-7.498v-5.895l7.498-0.336v-12.13h8.083v12.044
			h12.719v6.316h-12.719v22.907c0,1.911,0.408,3.257,1.221,4.043c0.816,0.786,2.204,1.181,4.172,1.181H588.005z"/>
		<path style="fill:#FFFFFF;" d="M634.872,746.635v41.1h-6.484l-0.589-5.642c-6.011,4.491-11.85,6.738-17.518,6.738
			c-7.468,0-11.202-3.79-11.202-11.37v-30.826h8.169v28.467c-0.056,2.527,0.365,4.283,1.263,5.264
			c0.898,0.984,2.444,1.474,4.632,1.474c3.201,0,7.748-1.823,13.643-5.474v-29.73H634.872z"/>
		<path style="fill:#FFFFFF;" d="M674.261,745.539l-0.928,7.665h-2.527c-3.198,0-8.113,1.573-14.738,4.718v29.813H647.9v-41.1h6.317
			l0.842,6.234c6.119-4.885,11.876-7.33,17.265-7.33H674.261z"/>
		<path style="fill:#FFFFFF;" d="M708.278,771.144h-18.446c0.392,4.267,1.503,7.129,3.326,8.59c1.826,1.461,4.816,2.191,8.971,2.191
			c3.648,0,8.448-0.339,14.4-1.013l0.76,5.392c-3.708,1.628-9.126,2.441-16.255,2.441c-7.188,0-12.284-1.628-15.285-4.885
			c-3.007-3.254-4.507-8.843-4.507-16.758c0-7.971,1.474-13.561,4.422-16.758c2.948-3.201,7.817-4.803,14.613-4.803
			c6.287,0,10.863,1.151,13.725,3.454c2.865,2.303,4.297,5.757,4.297,10.36C718.299,767.213,714.956,771.144,708.278,771.144z
			 M689.75,764.828h16.337c2.694,0,4.043-1.826,4.043-5.474c-0.056-2.527-0.773-4.31-2.148-5.349
			c-1.375-1.036-3.803-1.556-7.284-1.556c-4.043,0-6.853,0.855-8.422,2.566C690.704,756.728,689.861,759.998,689.75,764.828z"/>
		<path style="fill:#FFFFFF;" d="M781.882,770.216h-23.161l-5.389,17.518h-8.59l18.19-55.839c0.451-1.517,1.487-2.273,3.115-2.273
			h8.593c1.684,0,2.694,0.757,3.03,2.273l18.275,55.839h-8.672L781.882,770.216z M779.694,762.89l-6.823-22.065
			c-0.168-0.507-0.408-1.293-0.717-2.359s-0.546-1.852-0.714-2.359h-2.273l-1.349,4.718l-6.823,22.065H779.694z"/>
		<path style="fill:#FFFFFF;" d="M845.29,751.014l-5.81,0.592c0.954,1.908,1.431,4.293,1.431,7.159c0,4.658-1.336,8.014-4,10.064
			c-2.668,2.05-7.287,3.073-13.854,3.073c-3.033,0-5.757-0.224-8.172-0.674c-0.898,1.181-1.135,2.474-0.714,3.875
			c0.421,1.405,1.53,2.247,3.326,2.527l15.16,2.359c3.875,0.563,6.639,1.767,8.297,3.622c1.655,1.852,2.484,4.547,2.484,8.083
			c0,4.885-1.431,8.254-4.297,10.106c-2.862,1.852-8.057,2.78-15.581,2.78c-7.58,0-12.83-0.915-15.748-2.737
			c-2.921-1.826-4.379-5.126-4.379-9.896c0-2.303,0.503-4.125,1.517-5.474c1.01-1.349,2.694-2.694,5.053-4.043
			c-1.967-1.628-2.852-3.803-2.655-6.527c0.197-2.721,1.276-4.787,3.244-6.188c-3.596-1.855-5.392-5.474-5.392-10.866
			c0-4.826,1.319-8.254,3.961-10.274c2.638-2.02,7.297-3.033,13.979-3.033c4.099,0,7.356,0.368,9.771,1.096h12.801L845.29,751.014z
			 M828.446,785.965l-13.222-1.767c-2.583,2.135-3.875,4.491-3.875,7.073c0,2.694,0.773,4.435,2.316,5.221
			c1.543,0.786,4.813,1.181,9.814,1.181c4.826,0,8.027-0.408,9.6-1.221c1.573-0.816,2.359-2.543,2.359-5.182
			c0-1.908-0.421-3.158-1.263-3.747S831.42,786.416,828.446,785.965z M823.057,765.752c3.816,0,6.484-0.516,8.001-1.556
			c1.513-1.04,2.273-2.849,2.273-5.432c0-2.638-0.747-4.464-2.234-5.474c-1.487-1.013-4.168-1.517-8.04-1.517
			c-3.931,0-6.655,0.503-8.172,1.517c-1.513,1.01-2.273,2.836-2.273,5.474c0,2.527,0.773,4.323,2.316,5.389
			C816.471,765.219,819.182,765.752,823.057,765.752z"/>
		<path style="fill:#FFFFFF;" d="M879.728,771.144h-18.446c0.395,4.267,1.503,7.129,3.329,8.59c1.823,1.461,4.813,2.191,8.968,2.191
			c3.648,0,8.448-0.339,14.403-1.013l0.757,5.392c-3.704,1.628-9.126,2.441-16.255,2.441c-7.188,0-12.281-1.628-15.285-4.885
			c-3.004-3.254-4.507-8.843-4.507-16.758c0-7.971,1.474-13.561,4.422-16.758c2.948-3.201,7.82-4.803,14.613-4.803
			c6.287,0,10.863,1.151,13.729,3.454c2.862,2.303,4.293,5.757,4.293,10.36C889.749,767.213,886.41,771.144,879.728,771.144z
			 M861.2,764.828h16.337c2.694,0,4.043-1.826,4.043-5.474c-0.056-2.527-0.773-4.31-2.148-5.349
			c-1.375-1.036-3.803-1.556-7.284-1.556c-4.043,0-6.853,0.855-8.422,2.566C862.154,756.728,861.312,759.998,861.2,764.828z"/>
		<path style="fill:#FFFFFF;" d="M907.56,746.635l0.507,6.316c6.455-4.938,12.518-7.412,18.19-7.412c3.652,0,6.415,0.97,8.297,2.908
			c1.882,1.934,2.823,4.757,2.823,8.461v30.826h-8.172v-28.467c0-2.583-0.378-4.366-1.135-5.346
			c-0.76-0.984-2.122-1.474-4.086-1.474c-2.135,0-4.267,0.477-6.399,1.431c-2.135,0.954-5.053,2.527-8.761,4.714v29.141h-8.169
			v-41.1H907.56z"/>
		<path style="fill:#FFFFFF;" d="M981.825,780.997l0.757,5.474c-4.155,1.517-8.929,2.273-14.317,2.273
			c-7.188,0-12.255-1.612-15.202-4.843c-2.948-3.227-4.422-8.8-4.422-16.716c0-7.919,1.474-13.505,4.422-16.762
			c2.948-3.254,8.014-4.885,15.202-4.885c5.501,0,10.05,0.704,13.643,2.105l-1.096,5.224c-4.211-0.283-7.915-0.421-11.116-0.421
			c-4.714,0-7.988,1.04-9.81,3.115c-1.826,2.076-2.737,5.951-2.737,11.623s0.911,9.544,2.737,11.62
			c1.823,2.079,5.096,3.119,9.81,3.119C974.298,781.925,978.341,781.616,981.825,780.997z"/>
		<path style="fill:#FFFFFF;" d="M1032.054,746.635l-15.92,43.038c-3.82,10.106-10.106,15.216-18.864,15.327l-0.842-5.389
			c3.201-0.957,5.728-2.277,7.58-3.961s3.339-3.816,4.464-6.399l0.589-1.517h-1.684c-1.573,0-2.527-0.701-2.865-2.106
			l-14.567-38.994h8.758l10.192,29.898c0.671,1.74,1.148,3.425,1.431,5.053h1.178c0.563-1.517,1.122-3.201,1.684-5.053
			l10.106-29.898H1032.054z"/>
	</g>
	<g>
		<g>
			<path style="fill:#FFFFFF;" d="M379.337,195h94.332c6.746,0,8.615,2.306,10.257,6.16c0.906,2.13,56.77,135.733,56.77,135.733
				L404.761,256.15L379.337,195z"/>
		</g>
		<g>
			<polygon style="fill:#FFFFFF;" points="407.81,263.345 543.523,343.67 562.873,390.358 481.164,438.956 			"/>
		</g>
		<g>
			<polygon style="fill:#FFFFFF;" points="483.105,442.95 564.788,394.497 577.168,424.425 527.637,550.289 			"/>
		</g>
		<g>
			<path style="fill:#FFFFFF;" d="M814.871,195H720.54c-6.746,0-8.615,2.306-10.257,6.16c-0.907,2.13-56.77,135.733-56.77,135.733
				l135.934-80.743L814.871,195z"/>
		</g>
		<g>
			<polygon style="fill:#FFFFFF;" points="786.399,263.345 650.685,343.67 631.336,390.358 713.044,438.956 			"/>
		</g>
		<g>
			<polygon style="fill:#FFFFFF;" points="711.104,442.95 629.42,394.497 617.041,424.425 666.572,550.289 			"/>
		</g>
	</g>
</g>
</svg>
