<?xml version="1.0" encoding="iso-8859-1"?>
<!-- Generator: Adobe Illustrator 25.2.1, SVG Export Plug-In . SVG Version: 6.00 Build 0)  -->
<svg version="1.1" id="Layer_1" xmlns="http://www.w3.org/2000/svg" xmlns:xlink="http://www.w3.org/1999/xlink" x="0px" y="0px"
	 viewBox="0 0 1400 500" style="enable-background:new 0 0 1400 500;" xml:space="preserve">
<g>
	<g>
		<g>
			<path style="fill:#FFFFFF;" d="M147,111.8h73.386c5.248,0,6.702,1.794,7.979,4.792c0.705,1.657,44.164,105.594,44.164,105.594
				l-105.751-62.814L147,111.8z"/>
		</g>
		<g>
			<polygon style="fill:#FFFFFF;" points="169.151,164.97 274.73,227.459 289.783,263.78 226.217,301.588 			"/>
		</g>
		<g>
			<polygon style="fill:#FFFFFF;" points="227.727,304.695 291.273,267.001 300.904,290.283 262.371,388.2 			"/>
		</g>
		<g>
			<path style="fill:#FFFFFF;" d="M485.827,111.8h-73.386c-5.248,0-6.702,1.794-7.979,4.792
				c-0.705,1.657-44.164,105.594-44.164,105.594l105.751-62.814L485.827,111.8z"/>
		</g>
		<g>
			<polygon style="fill:#FFFFFF;" points="463.677,164.97 358.097,227.459 343.044,263.78 406.61,301.588 			"/>
		</g>
		<g>
			<polygon style="fill:#FFFFFF;" points="405.1,304.695 341.554,267.001 331.924,290.283 370.456,388.2 			"/>
		</g>
	</g>
	<g>
		<g>
			<path style="fill:#FFFFFF;" d="M626.111,279.126h-19.515v53.552h-9v-53.552H578.26v-7.931h47.851V279.126z"/>
			<path style="fill:#FFFFFF;" d="M655.569,288.035l-0.98,8.108h-2.673c-3.386,0-8.584,1.666-15.593,4.991v31.544h-8.644v-43.483
				h6.684l0.891,6.593c6.474-5.167,12.564-7.752,18.267-7.752H655.569z"/>
			<path style="fill:#FFFFFF;" d="M665.734,296.412l-0.802-6.327c7.842-1.367,14.881-2.05,21.119-2.05
				c5.286,0,9.178,1.07,11.673,3.209c2.495,2.137,3.742,5.851,3.742,11.138v30.295h-6.772l-0.98-6.862
				c-4.989,5.111-10.781,7.663-17.375,7.663c-4.04,0-7.262-1.067-9.668-3.207c-2.406-2.14-3.609-5.167-3.609-9.088v-4.545
				c0-3.445,1.07-6.117,3.208-8.018c2.138-1.902,5.167-2.851,9.088-2.851h17.465v-3.386c-0.06-2.675-0.683-4.515-1.871-5.526
				c-1.189-1.008-3.446-1.515-6.772-1.515C680.911,295.342,674.764,295.698,665.734,296.412z M671.794,317.798v2.316
				c0,2.14,0.504,3.683,1.515,4.632c1.008,0.952,2.613,1.426,4.812,1.426c5.167,0,10.069-2.017,14.702-6.058v-7.842h-15.86
				c-1.903,0.061-3.239,0.55-4.01,1.472C672.179,314.665,671.794,316.014,671.794,317.798z"/>
			<path style="fill:#FFFFFF;" d="M743.728,275.827h-8.821c-2.673,0-4.56,0.507-5.659,1.515c-1.099,1.011-1.648,2.764-1.648,5.257
				v6.595h13.455v6.682H727.6v36.801h-8.643v-36.801h-7.842v-6.237l7.842-0.445v-7.576c0-4.215,1.008-7.409,3.029-9.577
				c2.019-2.168,5.316-3.253,9.891-3.253c5.583,0,9.772,0.21,12.564,0.624L743.728,275.827z"/>
			<path style="fill:#FFFFFF;" d="M755.135,270.66h4.099c1.662,0,2.494,0.832,2.494,2.495v4.991c0,1.722-0.832,2.582-2.494,2.582
				h-4.099c-1.664,0-2.495-0.86-2.495-2.582v-4.991C752.64,271.491,753.472,270.66,755.135,270.66z M761.462,332.678h-8.555v-43.483
				h8.555V332.678z"/>
			<path style="fill:#FFFFFF;" d="M788.825,311.292h-5.435c0.296,2.554,0.445,4.812,0.445,6.772v14.614h-8.644v-62.374h8.732v27.354
				c0,2.557-0.178,5.021-0.534,7.397h5.345l13.099-15.86h9.98l-13.099,15.771c-0.773,1.07-1.841,2.14-3.208,3.209v0.177
				c1.129,0.891,2.197,2.14,3.208,3.744l14.524,20.582h-9.98L788.825,311.292z"/>
			<path style="fill:#FFFFFF;" d="M830.812,270.304v49.81c-0.059,1.843,0.386,3.222,1.337,4.144
				c0.949,0.921,2.375,1.382,4.277,1.382h4.01l0.98,6.682c-1.724,0.77-4.487,1.157-8.287,1.157c-3.386,0-6.059-0.993-8.02-2.984
				c-1.96-1.989-2.941-4.796-2.941-8.42v-51.771H830.812z"/>
			<path style="fill:#FFFFFF;" d="M876.835,315.123H857.32c0.416,4.515,1.589,7.545,3.52,9.088c1.93,1.546,5.093,2.319,9.49,2.319
				c3.861,0,8.94-0.358,15.237-1.07l0.801,5.702c-3.92,1.722-9.654,2.585-17.198,2.585c-7.604,0-12.995-1.722-16.173-5.17
				c-3.179-3.442-4.767-9.354-4.767-17.731c0-8.433,1.559-14.345,4.679-17.731c3.119-3.386,8.271-5.08,15.46-5.08
				c6.652,0,11.494,1.218,14.524,3.655c3.029,2.436,4.544,6.089,4.544,10.959C887.438,310.967,883.904,315.123,876.835,315.123z
				 M857.232,308.441h17.286c2.852,0,4.278-1.93,4.278-5.792c-0.06-2.672-0.818-4.558-2.273-5.659
				c-1.456-1.098-4.025-1.648-7.707-1.648c-4.277,0-7.248,0.906-8.91,2.718C858.24,299.872,857.349,303.332,857.232,308.441z"/>
			<path style="fill:#FFFFFF;" d="M930.457,332.678l-0.713-5.971c-5.585,4.694-11.288,7.041-17.108,7.041
				c-5.346,0-9.223-1.917-11.628-5.748c-2.406-3.831-3.61-9.58-3.61-17.242c0-8.315,1.337-14.181,4.01-17.598
				c2.673-3.414,6.862-5.124,12.564-5.124c5.464,0,10.455,1.308,14.97,3.921c-0.238-2.554-0.356-5.405-0.356-8.553v-13.099h8.643
				v62.374H930.457z M928.586,320.826v-23.167c-5.407-1.426-9.566-2.137-12.476-2.137c-3.684,0-6.237,1.024-7.663,3.074
				s-2.138,6.073-2.138,12.072c0,6.002,0.697,10.102,2.094,12.298c1.395,2.198,3.787,3.296,7.173,3.296
				c2.197,0,4.144-0.384,5.837-1.157C923.106,324.332,925.496,322.906,928.586,320.826z"/>
			<path style="fill:#FFFFFF;" d="M970.234,315.569l-12.119-3.028c-3.624-0.95-6.178-2.362-7.663-4.233
				c-1.486-1.871-2.228-4.589-2.228-8.154c0-4.812,1.292-8.049,3.876-9.713c2.585-1.661,7.024-2.465,13.321-2.406
				c6.951,0.12,13.128,0.624,18.535,1.515l-0.713,6.237c-9.09-0.297-14.584-0.445-16.485-0.445c-4.219,0-6.965,0.253-8.242,0.758
				c-1.278,0.507-1.916,1.858-1.916,4.054c0,1.011,0.088,1.827,0.267,2.452c0.178,0.622,0.637,1.144,1.381,1.559
				c0.742,0.417,1.321,0.699,1.738,0.847c0.415,0.148,1.336,0.43,2.762,0.845l12.298,3.03c3.682,0.952,6.296,2.303,7.841,4.054
				c1.545,1.753,2.318,4.471,2.318,8.154c0,5.108-1.413,8.479-4.233,10.115c-2.822,1.633-7.708,2.449-14.657,2.449
				c-6.059,0-11.823-0.417-17.287-1.246l0.623-6.416c3.327,0.297,8.287,0.445,14.881,0.445c4.87,0,8.137-0.34,9.802-1.026
				c1.662-0.681,2.494-2.122,2.494-4.32c0-0.95-0.119-1.738-0.356-2.362c-0.238-0.622-0.744-1.141-1.515-1.559
				c-0.773-0.415-1.381-0.699-1.827-0.847C972.684,316.18,971.718,315.927,970.234,315.569z"/>
			<path style="fill:#FFFFFF;" d="M1037.714,289.194l-15.505,41.344c-0.594,1.426-1.603,2.14-3.029,2.14h-7.752
				c-1.486,0-2.466-0.714-2.941-2.14l-15.505-41.344h9.178l10.158,29.939l2.406,7.486h1.159l2.584-7.486l10.068-29.939H1037.714z"/>
			<path style="fill:#FFFFFF;" d="M1072.688,315.123h-19.515c0.416,4.515,1.589,7.545,3.52,9.088c1.93,1.546,5.093,2.319,9.49,2.319
				c3.861,0,8.94-0.358,15.237-1.07l0.801,5.702c-3.92,1.722-9.654,2.585-17.198,2.585c-7.604,0-12.995-1.722-16.173-5.17
				c-3.179-3.442-4.767-9.354-4.767-17.731c0-8.433,1.559-14.345,4.678-17.731c3.119-3.386,8.271-5.08,15.46-5.08
				c6.652,0,11.494,1.218,14.524,3.655c3.029,2.436,4.544,6.089,4.544,10.959C1083.292,310.967,1079.757,315.123,1072.688,315.123z
				 M1053.085,308.441h17.286c2.852,0,4.278-1.93,4.278-5.792c-0.06-2.672-0.818-4.558-2.273-5.659
				c-1.456-1.098-4.025-1.648-7.707-1.648c-4.277,0-7.248,0.906-8.91,2.718C1054.093,299.872,1053.203,303.332,1053.085,308.441z"/>
			<path style="fill:#FFFFFF;" d="M1122.426,288.035l-0.98,8.108h-2.673c-3.386,0-8.584,1.666-15.593,4.991v31.544h-8.644v-43.483
				h6.684l0.891,6.593c6.474-5.167,12.564-7.752,18.267-7.752H1122.426z"/>
			<path style="fill:#FFFFFF;" d="M1145.681,311.292h-5.435c0.296,2.554,0.445,4.812,0.445,6.772v14.614h-8.644v-62.374h8.733
				v27.354c0,2.557-0.178,5.021-0.534,7.397h5.345l13.099-15.86h9.98l-13.099,15.771c-0.773,1.07-1.841,2.14-3.208,3.209v0.177
				c1.129,0.891,2.197,2.14,3.208,3.744l14.524,20.582h-9.98L1145.681,311.292z"/>
			<path style="fill:#FFFFFF;" d="M1204.064,315.123h-19.515c0.416,4.515,1.589,7.545,3.52,9.088c1.93,1.546,5.093,2.319,9.49,2.319
				c3.861,0,8.94-0.358,15.237-1.07l0.801,5.702c-3.92,1.722-9.654,2.585-17.198,2.585c-7.604,0-12.995-1.722-16.173-5.17
				c-3.179-3.442-4.767-9.354-4.767-17.731c0-8.433,1.559-14.345,4.678-17.731c3.119-3.386,8.271-5.08,15.46-5.08
				c6.652,0,11.494,1.218,14.524,3.655c3.029,2.436,4.544,6.089,4.544,10.959C1214.667,310.967,1211.133,315.123,1204.064,315.123z
				 M1184.46,308.441h17.286c2.852,0,4.278-1.93,4.278-5.792c-0.06-2.672-0.818-4.558-2.273-5.659
				c-1.456-1.098-4.025-1.648-7.707-1.648c-4.277,0-7.248,0.906-8.91,2.718C1185.469,299.872,1184.578,303.332,1184.46,308.441z"/>
			<path style="fill:#FFFFFF;" d="M1251.574,325.64l0.98,6.682c-2.733,0.77-6.149,1.157-10.248,1.157
				c-3.684,0-6.49-1.052-8.42-3.163c-1.931-2.106-2.896-5.124-2.896-9.042v-25.396h-7.93v-6.237l7.93-0.356v-12.833h8.555v12.743
				H1253v6.682h-13.454v24.237c0,2.019,0.43,3.445,1.291,4.277s2.332,1.249,4.411,1.249H1251.574z"/>
		</g>
		<g>
			<path style="fill:#FFFFFF;" d="M629.317,161.209l-18.178,58.988c-0.534,1.664-1.664,2.495-3.386,2.495h-8.732
				c-1.724,0-2.851-0.832-3.386-2.495l-18.178-58.988h9.179l13.9,47.85c0.297,1.129,0.861,3.386,1.693,6.772h2.406
				c0.357-1.722,0.92-3.98,1.693-6.772l13.812-47.85H629.317z"/>
			<path style="fill:#FFFFFF;" d="M636.972,186.426l-0.802-6.327c7.842-1.367,14.881-2.05,21.118-2.05
				c5.286,0,9.178,1.07,11.673,3.209c2.495,2.137,3.742,5.851,3.742,11.138v30.295h-6.772l-0.98-6.862
				c-4.989,5.111-10.781,7.663-17.375,7.663c-4.04,0-7.262-1.067-9.668-3.207c-2.406-2.14-3.609-5.167-3.609-9.088v-4.545
				c0-3.445,1.07-6.117,3.208-8.018c2.138-1.902,5.167-2.851,9.088-2.851h17.465v-3.386c-0.06-2.675-0.683-4.515-1.871-5.526
				c-1.189-1.008-3.446-1.515-6.772-1.515C652.149,185.356,646.002,185.712,636.972,186.426z M647.488,170.566h-2.941
				c-1.486,0-2.228-0.804-2.228-2.406v-4.812c0-1.605,0.742-2.406,2.228-2.406h2.941c1.543,0,2.316,0.801,2.316,2.406v4.812
				C649.804,169.762,649.031,170.566,647.488,170.566z M643.032,207.812v2.316c0,2.14,0.504,3.683,1.515,4.632
				c1.008,0.952,2.613,1.426,4.812,1.426c5.167,0,10.069-2.017,14.702-6.058v-7.842H648.2c-1.903,0.061-3.239,0.55-4.01,1.472
				C643.417,204.68,643.032,206.028,643.032,207.812z M663.258,170.566h-2.851c-1.546,0-2.316-0.804-2.316-2.406v-4.812
				c0-1.605,0.77-2.406,2.316-2.406h2.851c1.605,0,2.406,0.801,2.406,2.406v4.812C665.664,169.762,664.863,170.566,663.258,170.566z
				"/>
			<path style="fill:#FFFFFF;" d="M725.419,179.209l-16.841,45.533c-4.041,10.693-10.693,16.096-19.96,16.216l-0.891-5.702
				c3.386-1.011,6.059-2.406,8.02-4.187c1.961-1.784,3.533-4.041,4.722-6.772l0.624-1.605h-1.783c-1.664,0-2.673-0.742-3.03-2.227
				l-15.415-41.257h9.267l10.781,31.631c0.713,1.843,1.217,3.627,1.515,5.346h1.248c0.592-1.602,1.188-3.386,1.783-5.346
				l10.692-31.631H725.419z"/>
			<path style="fill:#FFFFFF;" d="M743.818,160.318v49.81c-0.059,1.843,0.386,3.222,1.337,4.144c0.95,0.921,2.375,1.382,4.277,1.382
				h4.011l0.98,6.682c-1.724,0.77-4.487,1.157-8.287,1.157c-3.386,0-6.059-0.993-8.02-2.984c-1.96-1.989-2.941-4.796-2.941-8.42
				v-51.771H743.818z"/>
			<path style="fill:#FFFFFF;" d="M764.739,186.426l-0.802-6.327c7.842-1.367,14.881-2.05,21.118-2.05
				c5.286,0,9.178,1.07,11.673,3.209c2.495,2.137,3.742,5.851,3.742,11.138v30.295h-6.772l-0.98-6.862
				c-4.989,5.111-10.781,7.663-17.375,7.663c-4.04,0-7.262-1.067-9.668-3.207c-2.406-2.14-3.609-5.167-3.609-9.088v-4.545
				c0-3.445,1.07-6.117,3.208-8.018c2.138-1.902,5.167-2.851,9.088-2.851h17.465v-3.386c-0.06-2.675-0.683-4.515-1.871-5.526
				c-1.189-1.008-3.446-1.515-6.772-1.515C779.916,185.356,773.769,185.712,764.739,186.426z M775.254,170.566h-2.941
				c-1.486,0-2.228-0.804-2.228-2.406v-4.812c0-1.605,0.742-2.406,2.228-2.406h2.941c1.543,0,2.316,0.801,2.316,2.406v4.812
				C777.571,169.762,776.798,170.566,775.254,170.566z M770.799,207.812v2.316c0,2.14,0.504,3.683,1.515,4.632
				c1.008,0.952,2.613,1.426,4.812,1.426c5.167,0,10.068-2.017,14.702-6.058v-7.842h-15.86c-1.903,0.061-3.239,0.55-4.01,1.472
				C771.184,204.68,770.799,206.028,770.799,207.812z M791.025,170.566h-2.851c-1.546,0-2.316-0.804-2.316-2.406v-4.812
				c0-1.605,0.77-2.406,2.316-2.406h2.851c1.605,0,2.406,0.801,2.406,2.406v4.812C793.431,169.762,792.63,170.566,791.025,170.566z"
				/>
			<path style="fill:#FFFFFF;" d="M853.318,179.209l-15.505,41.344c-0.594,1.426-1.603,2.14-3.029,2.14h-7.752
				c-1.486,0-2.466-0.714-2.941-2.14l-15.505-41.344h9.178l10.158,29.939l2.406,7.486h1.159l2.584-7.486l10.068-29.939H853.318z"/>
			<path style="fill:#FFFFFF;" d="M865.34,160.674h4.099c1.662,0,2.494,0.832,2.494,2.495v4.991c0,1.722-0.832,2.582-2.494,2.582
				h-4.099c-1.664,0-2.495-0.86-2.495-2.582v-4.991C862.844,161.506,863.676,160.674,865.34,160.674z M871.667,222.692h-8.555
				v-43.483h8.555V222.692z"/>
			<path style="fill:#FFFFFF;" d="M913.288,178.049l-0.98,8.108h-2.673c-3.386,0-8.584,1.666-15.593,4.991v31.544h-8.644v-43.483
				h6.684l0.891,6.593c6.474-5.167,12.564-7.752,18.267-7.752H913.288z"/>
			<path style="fill:#FFFFFF;" d="M923.454,186.426l-0.802-6.327c7.842-1.367,14.881-2.05,21.119-2.05
				c5.286,0,9.178,1.07,11.673,3.209c2.495,2.137,3.742,5.851,3.742,11.138v30.295h-6.772l-0.98-6.862
				c-4.99,5.111-10.781,7.663-17.375,7.663c-4.04,0-7.262-1.067-9.668-3.207c-2.406-2.14-3.609-5.167-3.609-9.088v-4.545
				c0-3.445,1.07-6.117,3.208-8.018c2.138-1.902,5.167-2.851,9.088-2.851h17.465v-3.386c-0.06-2.675-0.683-4.515-1.871-5.526
				c-1.189-1.008-3.446-1.515-6.772-1.515C938.631,185.356,932.483,185.712,923.454,186.426z M929.513,207.812v2.316
				c0,2.14,0.504,3.683,1.515,4.632c1.008,0.952,2.613,1.426,4.812,1.426c5.167,0,10.068-2.017,14.702-6.058v-7.842h-15.86
				c-1.903,0.061-3.239,0.55-4.011,1.472C929.898,204.68,929.513,206.028,929.513,207.812z"/>
			<path style="fill:#FFFFFF;" d="M992.065,205.583l-12.119-3.028c-3.624-0.95-6.178-2.362-7.663-4.233
				c-1.486-1.871-2.228-4.589-2.228-8.154c0-4.812,1.292-8.049,3.876-9.713c2.585-1.661,7.024-2.465,13.321-2.406
				c6.951,0.12,13.128,0.624,18.535,1.515l-0.713,6.237c-9.09-0.297-14.584-0.445-16.485-0.445c-4.219,0-6.965,0.253-8.242,0.758
				c-1.278,0.507-1.916,1.858-1.916,4.054c0,1.011,0.088,1.827,0.267,2.452c0.178,0.622,0.637,1.144,1.381,1.559
				c0.742,0.417,1.321,0.699,1.738,0.847c0.415,0.148,1.336,0.43,2.762,0.845l12.298,3.03c3.682,0.952,6.296,2.303,7.841,4.054
				c1.545,1.753,2.318,4.471,2.318,8.154c0,5.108-1.413,8.479-4.233,10.115c-2.822,1.633-7.708,2.449-14.657,2.449
				c-6.059,0-11.823-0.417-17.287-1.246l0.623-6.416c3.327,0.297,8.287,0.445,14.881,0.445c4.87,0,8.137-0.34,9.802-1.026
				c1.662-0.681,2.494-2.122,2.494-4.32c0-0.95-0.119-1.738-0.356-2.362c-0.238-0.622-0.744-1.141-1.515-1.559
				c-0.773-0.415-1.381-0.699-1.827-0.847C994.516,206.195,993.549,205.941,992.065,205.583z"/>
			<path style="fill:#FFFFFF;" d="M1043.71,215.654l0.98,6.682c-2.733,0.77-6.149,1.157-10.248,1.157
				c-3.684,0-6.49-1.052-8.42-3.163c-1.931-2.106-2.896-5.124-2.896-9.042v-25.396h-7.93v-6.237l7.93-0.356v-12.833h8.555v12.743
				h13.454v6.682h-13.454v24.237c0,2.019,0.43,3.445,1.291,4.277c0.861,0.832,2.332,1.249,4.411,1.249H1043.71z"/>
			<path style="fill:#FFFFFF;" d="M1057.806,183.306c3.148-3.504,8.495-5.257,16.039-5.257c7.544,0,12.89,1.753,16.039,5.257
				c3.148,3.506,4.722,9.416,4.722,17.734c0,8.318-1.574,14.197-4.722,17.642c-3.149,3.447-8.496,5.17-16.039,5.17
				c-7.545,0-12.891-1.722-16.039-5.17c-3.149-3.445-4.722-9.324-4.722-17.642C1053.084,192.722,1054.656,186.813,1057.806,183.306z
				 M1083.113,188.653c-1.664-2.196-4.754-3.296-9.267-3.296c-4.515,0-7.605,1.101-9.267,3.296
				c-1.664,2.198-2.494,6.327-2.494,12.387c0,5.999,0.83,10.099,2.494,12.295c1.662,2.198,4.753,3.299,9.267,3.299
				c4.513,0,7.604-1.101,9.267-3.299c1.662-2.196,2.495-6.296,2.495-12.295C1085.608,194.98,1084.775,190.851,1083.113,188.653z"/>
		</g>
	</g>
</g>
</svg>
