<?xml version="1.0" encoding="iso-8859-1"?>
<!-- Generator: Adobe Illustrator 25.2.1, SVG Export Plug-In . SVG Version: 6.00 Build 0)  -->
<svg version="1.1" id="Layer_1" xmlns="http://www.w3.org/2000/svg" xmlns:xlink="http://www.w3.org/1999/xlink" x="0px" y="0px"
	 viewBox="0 0 99.213 99.213" style="enable-background:new 0 0 99.213 99.213;" xml:space="preserve">
<g>
	<g>
		<path style="" d="M21.927,26.794h12.279c0.878,0,1.121,0.3,1.335,0.802c0.118,0.277,7.39,17.668,7.39,17.668
			l-17.694-10.51L21.927,26.794z"/>
	</g>
	<g>
		<polygon style="" points="25.633,35.691 43.298,46.146 45.817,52.224 35.181,58.55 		"/>
	</g>
	<g>
		<polygon style="" points="35.434,59.07 46.066,52.763 47.678,56.658 41.231,73.042 		"/>
	</g>
	<g>
		<path style="" d="M78.619,26.794H66.34c-0.878,0-1.121,0.3-1.335,0.802c-0.118,0.277-7.39,17.668-7.39,17.668
			l17.694-10.51L78.619,26.794z"/>
	</g>
	<g>
		<polygon style="" points="74.913,35.691 57.248,46.146 54.729,52.224 65.365,58.55 		"/>
	</g>
	<g>
		<polygon style="" points="65.112,59.07 54.48,52.763 52.868,56.658 59.315,73.042 		"/>
	</g>
</g>
</svg>
