<svg xmlns="http://www.w3.org/2000/svg" viewBox="0 0 20 20"><defs><style>.cls-1{fill:#fff;}</style></defs><g id="Layer_2" data-name="Layer 2"><g id="Layer_1-2" data-name="Layer 1"><path class="cls-1" d="M19.27,6.24c-.11-.27-.24-.54-.37-.8a3.07,3.07,0,0,0-4.25-4.29,8.93,8.93,0,0,0-.83-.39,10,10,0,0,0-13.08,13c.12.29.28.56.43.84a3,3,0,0,0-.46.86,3.08,3.08,0,0,0,3.84,3.87h0a3.22,3.22,0,0,0,.88-.46,7.59,7.59,0,0,0,.77.35,10,10,0,0,0,13.06-13ZM17.4,3.59a1,1,0,0,1-1.22,1.09,1,1,0,0,1,.3-2A1,1,0,0,1,17.1,3,1.06,1.06,0,0,1,17.4,3.59ZM2.93,17.13a1,1,0,0,1,.82-1.73,1,1,0,0,1,.62.29,1,1,0,0,1,0,1.44,1,1,0,0,1-1.44,0Zm12.69-1.51a7.93,7.93,0,0,1-8.27,1.87,6.59,6.59,0,0,1-.73-.3,3.06,3.06,0,0,0-3.78-3.74A8,8,0,0,1,12.68,2.51c.26.1.51.2.75.32A3.06,3.06,0,0,0,17.2,6.64a6.59,6.59,0,0,1,.3.73h0A8,8,0,0,1,15.62,15.62Z"/></g></g></svg>